<?xml version="1.0" standalone="no"?><!DOCTYPE svg PUBLIC "-//W3C//DTD SVG 1.1//EN" "http://www.w3.org/Graphics/SVG/1.1/DTD/svg11.dtd"><svg class="icon" width="200px" height="200.00px" viewBox="0 0 1024 1024" version="1.1" xmlns="http://www.w3.org/2000/svg"><path d="M0 0h1024v1024H0z"/><path d="M954.272 820.224c-4.064 21.024-29.44 21.536-46.368 22.24-105.248 0.32-210.592-0.16-315.936 0v91.008h-63.072C374.08 905.472 218.976 879.584 64 852.608V145.088c155.904-26.976 311.808-53.568 467.616-80.96h60.32V144.96c101.696 0 203.392 0.224 305.024-0.288 17.184 0.736 36.064-0.512 51.008 9.696 10.464 15.008 9.216 33.984 9.92 51.104-0.512 175.552-0.288 350.976-0.16 526.336-0.544 29.376 2.752 59.424-3.488 88.416z m-520.32-493.664c-23.04 1.088-46.144 2.496-69.12 4.096-17.12 41.536-37.184 82.016-50.56 124.96-12.48-40.512-29.056-79.552-44.16-119.104-22.368 1.216-44.704 2.56-67.072 3.84 23.584 51.808 48.64 102.816 71.552 154.88-26.944 50.56-52.16 101.76-78.272 152.64 22.272 0.928 44.48 1.824 66.784 2.144 15.808-40.256 35.552-78.976 49.312-120 12.416 44.064 33.472 84.8 50.688 127.04 24.512 1.664 48.864 3.136 73.376 4.608-28.032-56.64-56.576-112.864-84.512-169.472a19743.904 19743.904 0 0 0 81.984-165.632z m493.216-151.264H592v60.64h81.312v70.752H592v40.448h81.28v70.784H592v40.416h81.28v70.72H592V569.6h81.28v70.752H592v40.416h81.28v70.72H592v60.672h335.168V175.296z m-71.04 131.392h-142.24V235.936h142.208v70.752z m0 111.232h-142.24v-70.784h142.208v70.784z m0 111.2h-142.24v-70.784h142.208v70.784z m0 111.2h-142.24V569.6h142.208v70.752z m0 111.232h-142.24v-70.816h142.208v70.816z" fill="#207245" /></svg>