<?xml version="1.0" standalone="no"?><!DOCTYPE svg PUBLIC "-//W3C//DTD SVG 1.1//EN" "http://www.w3.org/Graphics/SVG/1.1/DTD/svg11.dtd"><svg class="icon" width="200px" height="200.00px" viewBox="0 0 1024 1024" version="1.1" xmlns="http://www.w3.org/2000/svg"><path d="M987.83463903 213.01846218a49.24401798 49.24401798 0 0 0 14.96952707-36.07410623c0-14.15152013-4.90804165-26.17622215-14.96952707-36.15590686l-107.15890958-104.70488881a47.77160554 47.77160554 0 0 0-34.84709581-14.88772638 47.77160554 47.77160554 0 0 0-34.84709582 14.96952707L512 335.14689883l-301.4355587-298.98153786a47.77160554 47.77160554 0 0 0-34.92889645-14.96952707 47.77160554 47.77160554 0 0 0-34.84709576 14.96952707l-107.15890967 104.62308812a54.56106315 54.56106315 0 0 0-12.43370552 36.15590686c0 14.06971939 4.09003471 26.17622215 12.43370552 36.07410623L335.14689883 512l-301.51735941 298.98153782a54.56106315 54.56106315 0 0 0-12.43370552 36.07410623c0 14.15152013 4.09003471 26.17622215 12.43370552 36.15590686l107.15890967 104.70488881a47.77160554 47.77160554 0 0 0 34.84709576 14.88772638c13.33351322 0 24.94921179-4.90804165 34.92889645-14.96952707L512 688.85310117l298.98153782 298.98153786a47.77160554 47.77160554 0 0 0 34.84709582 14.96952707c13.33351322 0 24.94921179-4.90804165 34.92889649-14.96952707l107.15890959-104.62308812a49.24401798 49.24401798 0 0 0 14.88772638-36.15590686c0-14.06971939-4.90804165-26.17622215-14.96952707-36.07410623L686.39908037 512l301.43555866-298.98153782z" /></svg>
