<?xml version="1.0" standalone="no"?><!DOCTYPE svg PUBLIC "-//W3C//DTD SVG 1.1//EN" "http://www.w3.org/Graphics/SVG/1.1/DTD/svg11.dtd"><svg class="icon" width="200px" height="200.00px" viewBox="0 0 1024 1024" version="1.1" xmlns="http://www.w3.org/2000/svg"><path d="M1011.58759 502.783749L543.517424 14.847993l-1.075199-1.1264a42.905579 42.905579 0 0 0-1.3824-1.382399l-0.102399-0.1024-0.1024-0.1024a41.369579 41.369579 0 0 0-64.870368 8.191996L12.47129 503.500548a45.977577 45.977577 0 0 0-7.679996 51.916774 41.983979 41.983979 0 0 0 45.055977 23.295989l73.625563-0.1536c47.974376 2.508799 47.667176 16.179192 47.667176 91.135954l-0.511999-91.135954-15.820792-0.1024h17.049591l0.3584 388.966205a45.055977 45.055977 0 0 0 24.575988 52.428774 40.95998 40.95998 0 0 0 25.446387 3.430398l153.395123-0.307199c11.161594 2.559999 22.783989 0.3584 32.358384-6.143997a44.543978 44.543978 0 0 0 18.483191-28.313586v-0.0512a46.591977 46.591977 0 0 0 0.870399-14.643193l-0.256-166.911916 1.0752-50.380775H427.037482l0.0512 45.619177c2.406399-35.430382 11.673594-43.775978 47.257577-45.721577l72.191964-0.1024c39.73118 1.894399 48.742376 11.007994 50.687974 55.295972l-0.0512-55.398372-22.015989 0.0512 20.73599 0.1536 1.382399 66.355167 0.2048 144.691127a45.055977 45.055977 0 0 0 42.495979 56.524772 41.011179 41.011179 0 0 0 7.526396-0.7168l153.446324-0.307199a40.95998 40.95998 0 0 0 9.164795 1.023999c20.63359 0 37.836781-15.359992 41.727979-35.737582a46.489577 46.489577 0 0 0 0.8192-14.335993l-0.4096-396.287802c0-24.524788-19.04639-44.441578-42.495979-44.441578-23.551988 0-42.547179 19.91679-42.547179 44.492778l0.256 272.127864-0.511999 84.275158h0.614399l-0.1024-73.625563c-0.2048 56.831972-3.020798 70.143965-43.980778 73.318363-42.086379-3.379198-40.95998-18.585591-40.959979-88.012756l-0.1536 14.847993-0.2048-141.46553a46.182377 46.182377 0 0 0-11.519994-38.50238 41.574379 41.574379 0 0 0-38.399981-13.414394l-238.591881 0.4096a41.471979 41.471979 0 0 0-39.32158 12.083194 45.311977 45.311977 0 0 0-12.390394 42.342379l0.2048 149.299125c-0.512 48.179176-4.761598 59.69917-42.598379 62.463969-30.156785-2.201599-39.47518-10.239995-42.393579-38.707181l-0.255999-353.791823a45.619177 45.619177 0 0 0-11.622395-38.60478 41.574379 41.574379 0 0 0-38.39998-13.311994l-60.62077 0.1536 366.079817-381.593409 439.09098 457.727771a41.267179 41.267179 0 0 0 60.15997 0 45.926377 45.926377 0 0 0 0-62.924768z m-308.633445 433.663783l-20.47999 0.3072v-0.9728l20.47999 0.7168z m-425.625388 0l-20.12159 0.3072v-0.9728l20.12159 0.7168z"  /></svg>
