<?xml version="1.0" standalone="no"?><!DOCTYPE svg PUBLIC "-//W3C//DTD SVG 1.1//EN" "http://www.w3.org/Graphics/SVG/1.1/DTD/svg11.dtd"><svg class="icon" width="200px" height="200.00px" viewBox="0 0 1024 1024" version="1.1" xmlns="http://www.w3.org/2000/svg"><path d="M885.069913 144.250435c-158.72-17.830957-278.149565-60.482783-354.927304-126.820174L509.952 0l-21.793391 15.449043C367.816348 100.774957 248.809739 144.027826 134.500174 144.027826H100.552348v472.064c0 144.695652 128.445217 275.968 392.681739 401.318957l13.890783 6.566956 14.157913-6.032696c261.409391-111.526957 393.928348-246.717217 393.928347-401.853217V147.656348l-30.141217-3.405913z m-37.754435 471.863652c0 123.058087-113.90887 235.341913-338.721391 333.801739-225.725217-109.345391-340.146087-221.629217-340.146087-333.801739V210.409739c111.014957-7.145739 224.434087-49.196522 337.830957-125.328696 81.408 61.618087 195.895652 102.733913 341.036521 122.457044v408.576z"  /><path d="M346.401391 469.303652a34.103652 34.103652 0 0 0-47.927652-2.938435 33.569391 33.569391 0 0 0-2.938435 47.616l129.179826 145.207653c13.356522 15.003826 32.01113 22.728348 50.821566 22.728347 20.413217 0 39.757913-9.104696 52.713739-24.776347l209.586087-255.755131c7.657739-9.349565 9.728-22.038261 5.409391-33.28a34.05913 34.05913 0 0 0-58.056348-9.305043l-209.586087 255.710608-129.202087-145.207652z"  /></svg>
