<?xml version="1.0" standalone="no"?><!DOCTYPE svg PUBLIC "-//W3C//DTD SVG 1.1//EN" "http://www.w3.org/Graphics/SVG/1.1/DTD/svg11.dtd"><svg class="icon" width="200px" height="200.00px" viewBox="0 0 1024 1024" version="1.1" xmlns="http://www.w3.org/2000/svg"><path d="M994.92397284 937.9259085L809.93728285 752.93921849c71.17568569-82.15265849 110.02122582-185.96004181 110.0212258-295.7414218 0-120.84451215-47.05964144-234.45525845-132.50958449-319.90636544-85.44994303-85.44877794-199.0618533-132.50841942-319.90753053-132.50841941-120.84451215 0-234.45525845 47.05964144-319.90403754 132.5095845C62.18741419 222.7425371 15.12893668 336.3544485 15.12893668 457.19779669s47.05964144 234.45525845 132.50958449 319.90636544c85.44877794 85.44994303 199.06068935 132.50958451 319.90403755 132.50958452 99.8383013 0 194.72136191-32.14851527 272.88398164-91.50078409l187.15577232 187.15577231c9.29805995 9.29805995 21.48473629 13.94825443 33.6714126 13.94825444s24.37335267-4.65019449 33.67141265-13.94825444C1013.52009389 986.67144989 1013.52009389 956.52202953 994.92397284 937.9259085zM110.36477894 457.19779669c0-196.94865863 160.22912114-357.17777862 357.17661469-357.17777863 196.94865863 0 357.1789437 160.22912114 357.17894372 357.17777863s-160.23028509 357.17661469-357.17894372 357.17661469C270.5939001 814.37557532 110.36477894 654.1464542 110.36477894 457.19779669z" /></svg>
