<?xml version="1.0" standalone="no"?><!DOCTYPE svg PUBLIC "-//W3C//DTD SVG 1.1//EN" "http://www.w3.org/Graphics/SVG/1.1/DTD/svg11.dtd"><svg t="1582772227998" class="icon" viewBox="0 0 1097 1024" version="1.1" xmlns="http://www.w3.org/2000/svg" p-id="3871" xmlns:xlink="http://www.w3.org/1999/xlink" width="214.2578125" height="200"><defs><style type="text/css"></style></defs><path d="M368.128 792.941714a105.764571 105.764571 0 0 1 73.435429 29.476572c9.581714 9.289143 16.969143 20.187429 22.162285 32.768 5.193143 12.653714 7.826286 25.965714 7.826286 40.082285 0 14.043429-2.633143 27.428571-7.826286 40.009143a95.305143 95.305143 0 0 1-22.235428 32.841143 114.176 114.176 0 0 1-33.353143 22.235429 98.084571 98.084571 0 0 1-40.009143 8.338285c-14.848 0-28.379429-2.779429-40.594286-8.338285a116.589714 116.589714 0 0 1-32.841143-22.235429 95.305143 95.305143 0 0 1-22.235428-32.841143 104.082286 104.082286 0 0 1-7.753143-40.009143c0-14.116571 2.56-27.428571 7.753143-40.082285 5.193143-12.580571 12.580571-23.478857 22.235428-32.768a102.912 102.912 0 0 1 73.435429-29.476572z m462.628571 2.194286c14.116571 0 27.648 2.633143 40.594286 7.826286 12.946286 5.12 24.137143 12.434286 33.353143 21.650285 9.289143 9.289143 16.676571 20.260571 22.235429 32.841143 5.558857 12.580571 8.338286 25.965714 8.338285 40.009143 0 14.116571-2.779429 27.428571-8.338285 40.082286a106.934857 106.934857 0 0 1-22.235429 32.768 105.179429 105.179429 0 0 1-33.353143 22.235428 102.034286 102.034286 0 0 1-113.444571-22.235428 106.934857 106.934857 0 0 1-22.235429-32.768 98.084571 98.084571 0 0 1-8.338286-40.082286c0-14.043429 2.779429-27.428571 8.338286-40.009143 5.558857-12.580571 12.946286-23.552 22.235429-32.841143a104.082286 104.082286 0 0 1 72.850285-29.476571z m186.806858-631.661714c20.772571 0 36.937143 2.779429 48.420571 8.338285 11.483429 5.558857 19.602286 12.434286 24.429714 20.553143 4.827429 8.192 7.094857 16.896 6.656 26.185143a87.04 87.04 0 0 1-3.876571 23.917714l-13.897143 41.106286c-7.021714 20.772571-14.994286 43.593143-23.917714 68.388572l-26.112 73.947428c-8.557714 24.502857-14.994286 43.739429-19.456 57.856-9.654857 29.696-21.942857 50.249143-36.717715 61.732572a86.308571 86.308571 0 0 1-54.491428 17.261714H334.774857l16.676572 100.059428h560.493714c35.547429 0 53.394286 15.213714 53.394286 45.568a68.461714 68.461714 0 0 1-10.605715 38.4c-7.021714 10.752-20.918857 16.091429-41.691428 16.091429H330.313143a65.682286 65.682286 0 0 1-37.302857-9.947429 84.406857 84.406857 0 0 1-25.014857-26.185142 158.866286 158.866286 0 0 1-16.091429-35.035429 320.146286 320.146286 0 0 1-9.508571-35.547429c-0.731429-4.461714-2.706286-15.213714-6.070858-32.256A533584.749714 533584.749714 0 0 1 190.171429 379.245714c-14.116571-74.898286-29.988571-158.281143-47.835429-250.221714H58.953143a45.056 45.056 0 0 1-27.794286-8.338286 72.630857 72.630857 0 0 1-18.358857-20.041143 77.019429 77.019429 0 0 1-10.020571-25.014857A120.685714 120.685714 0 0 1 0 51.126857C0 36.352 4.973714 24.137143 14.994286 14.482286 25.014857 4.827429 38.546286 0 55.588571 0h112.347429c14.848 0 26.697143 2.194286 35.547429 6.656a60.416 60.416 0 0 1 32.256 37.814857L241.371429 63.414857c1.462857 5.851429 2.998857 14.262857 4.461714 25.014857l4.461714 32.768c2.194286 13.385143 4.388571 27.428571 6.656 42.276572h760.685714z" p-id="3872"></path></svg>