<?xml version="1.0" standalone="no"?><!DOCTYPE svg PUBLIC "-//W3C//DTD SVG 1.1//EN" "http://www.w3.org/Graphics/SVG/1.1/DTD/svg11.dtd"><svg t="1582613448848" class="icon" viewBox="0 0 1024 1024" version="1.1" xmlns="http://www.w3.org/2000/svg" p-id="11801" xmlns:xlink="http://www.w3.org/1999/xlink" width="200" height="200"><defs><style type="text/css"></style></defs><path d="M512 24.380952a268.190476 268.190476 0 1 0 0 536.380953 268.190476 268.190476 0 0 0 0-536.380953z m0 48.761905a219.428571 219.428571 0 1 1 0 438.857143 219.428571 219.428571 0 0 1 0-438.857143zM780.190476 658.285714c89.478095 0 165.059048 50.712381 170.374095 119.125334L950.857143 785.066667V1024h-48.761905v-238.933333c0-39.058286-48.566857-74.800762-113.030095-77.824L780.190476 707.047619h-536.380952c-65.828571 0-117.272381 33.987048-121.612191 72.704L121.904762 785.066667V1024H73.142857v-238.933333c0-69.680762 72.411429-122.88 160.768-126.585905L243.809524 658.285714h536.380952z" p-id="11802"></path></svg>
