<?xml version="1.0" standalone="no"?><!DOCTYPE svg PUBLIC "-//W3C//DTD SVG 1.1//EN" "http://www.w3.org/Graphics/SVG/1.1/DTD/svg11.dtd"><svg class="icon" width="200px" height="200.00px" viewBox="0 0 1024 1024" version="1.1" xmlns="http://www.w3.org/2000/svg"><path d="M614.0503791 925.44621083c0 25.59158114-9.920687 47.32862784-29.69887194 65.21114005A104.13561904 104.13561904 0 0 1 512 1017.51271383c-28.37190108 0-52.44694404-8.97285069-72.28831805-26.85536295a84.61019047 84.61019047 0 0 1-29.76206105-65.21114005v-429.55942858c0-25.59158114 9.920687-47.32862784 29.69887194-65.21114006A104.13561904 104.13561904 0 0 1 512 403.82027925c28.37190108 0 52.44694404 8.97285069 72.28831805 26.85536294 19.84137404 17.88251227 29.76206101 39.61955893 29.76206105 65.21114006v429.55942858zM512 246.85858162a125.11439666 125.11439666 0 0 1-89.53893943-35.00675544A113.10846973 113.10846973 0 0 1 385.62182156 126.67293391c0-33.3638391 12.25868333-61.73574017 36.83923901-85.1157032A125.11439666 125.11439666 0 0 1 512 6.48728617a125.11439666 125.11439666 0 0 1 89.53893943 35.06994454c24.58055571 23.37996303 36.83923904 51.75186405 36.83923901 85.1157032 0 33.42702819-12.25868333 61.79892926-36.83923901 85.17889227a125.11439666 125.11439666 0 0 1-89.53893943 35.00675544z" /></svg>
