<?xml version="1.0" standalone="no"?><!DOCTYPE svg PUBLIC "-//W3C//DTD SVG 1.1//EN" "http://www.w3.org/Graphics/SVG/1.1/DTD/svg11.dtd"><svg class="icon" width="200px" height="200.00px" viewBox="0 0 1024 1024" version="1.1" xmlns="http://www.w3.org/2000/svg"><path d="M0 0h1024v1024H0z" /><path d="M532.224 64h60.896v83.392c108.96 0.96 217.792-1.184 326.528 0.96a35.392 35.392 0 0 1 39.296 39.808c1.792 205.344 0 411.136 1.056 616.16-1.056 21.056 2.016 44.352-9.92 63.232-14.848 10.56-34.016 9.504-51.392 10.56h-305.568V960H529.92c-155.328-28.576-310.624-55.136-465.92-82.944V147.584C220.032 119.68 376.192 92.48 532.224 64z" fill="#2A5699" /><path d="M586.88 186.176h332.384v672H586.88v-84h261.92v-42.464H586.88V679.68h261.92v-42.496H586.88v-52.032h261.92V542.72H586.88v-53.12h261.92v-40.864H586.88v-53.12h261.92v-41.408H586.88V301.6h261.92v-41.92H586.88V186.176z m-315.072 185.536c19.2-1.184 38.272-2.016 57.472-3.072 13.44 70.912 27.104 141.664 41.696 212.384 11.36-72.96 24-145.6 36.16-218.336 20.16-0.768 40.256-1.92 60.384-3.2-22.848 101.76-42.752 204.416-67.68 305.536-16.768 9.12-41.696 0-61.92 1.056-13.984-69.664-29.504-138.816-41.504-208.576-11.776 67.84-27.104 135.072-40.544 202.4-19.392-1.056-38.784-2.24-58.272-3.584-16.704-92.416-36.416-184.256-52.16-276.864 17.216-0.864 34.528-1.6 52.16-2.24 10.4 66.912 22.176 133.504 31.264 200.512 13.984-68.704 28.48-137.312 42.944-206.016z" fill="#FFFFFF" /></svg>