<?xml version="1.0" standalone="no"?><!DOCTYPE svg PUBLIC "-//W3C//DTD SVG 1.1//EN" "http://www.w3.org/Graphics/SVG/1.1/DTD/svg11.dtd"><svg t="1583513792474" class="icon" viewBox="0 0 1594 1024" version="1.1" xmlns="http://www.w3.org/2000/svg" p-id="2490" xmlns:xlink="http://www.w3.org/1999/xlink" width="311.328125" height="200"><defs><style type="text/css"></style></defs><path d="M900.2159665 863.92411275a374.30926853 374.30926853 0 0 1-329.3512489-68.43576573h-49.33096992a407.76661017 407.76661017 0 0 0 387.23652772 99.70792676 403.82215205 403.82215205 0 0 0 176.31870166-99.42312834h-49.18857071a372.26648715 372.26648715 0 0 1-135.68443985 68.15096731zM669.38555274 947.52151072l-30.65466626-13.54475394 0.56959683 32.60165184-23.66674867 24.04863746 32.69744766 8.93490316 16.15842671 28.42029321 19.53328798-26.94710867 33.60103538-6.32123037-20.57927491-25.5205275 4.75225-32.31814794-32.41135472 10.64628275z m454.72210237-48.47657467l30.74916756 11.02687702-2.9463691-33.45863618 21.05307591-26.85131284-32.27025004-6.08432986-17.77401046-27.61120681-16.91961521 29.75107857-32.1744542 9.60029582 21.76766102 24.38003926-2.18776966 33.64763876 30.70256418-14.35254582z m-230.16502108 108.64412445l25.99562303 19.77018848 7.27142147-32.64954975 28.18209818-19.05819242-28.79959293-15.49303404-8.50641098-31.65146074-25.09332986 23.09715184-33.554432-0.38059425 13.30785344 29.65528273-12.16607068 31.32005894 33.36284033-4.60985079z m-404.0603471-102.37079197l32.2689555 11.40617671-4.70435209-32.31685342 20.29318195-25.42473165-33.45734163-6.74972255-19.67698173-27.32770292-16.06263086 28.18209819-32.60294638 8.55560343 23.71594114 24.23764005-0.47509555 32.50715054 30.70126965-13.06965838zM72.60988224 763.21809698l1460.92786472 0.19029713c35.73961261-0.04789792 64.77869511-29.03778797 64.54050008-64.72950264l-1.94957465-388.37701595a65.30039404 65.30039404 0 0 0-65.25120158-64.72950267l-1460.88126135-0.09579582a64.49130762 64.49130762 0 0 0-64.54050007 64.63500137l1.94957464 388.42491385a65.06219899 65.06219899 0 0 0 65.25120158 64.72950265z m-32.83984688-81.03032856l-1.8537788-355.96566124a48.47528012 48.47528012 0 0 1 48.47528011-48.57107595l1428.27960952 0.33399087c26.75681154 0 48.80797645 21.86086779 48.90377229 48.52317804l1.85248427 356.05886799a48.47528012 48.47528012 0 0 1-48.47528013 48.47657465l-1428.42200873-0.23819505a48.71347517 48.71347517 0 0 1-48.76007853-48.61767931z m916.1447348 385.09795049c-260.91418864 69.76655107-528.76710242-48.47657467-658.93810376-271.51257347l-37.25940054 0.0945013c133.68826185 245.65934965 423.06934708 377.82652903 704.56281062 302.59443737a611.22271763 611.22271763 0 0 0 382.10368347-302.59443737l-37.07039794 0.09579583a578.05017442 578.05017442 0 0 1-353.39859185 271.32227634zM567.72934589 213.06522231a370.0321141 370.0321141 0 0 1 135.49543728-68.29466105 374.35716645 374.35716645 0 0 1 329.34995437 68.43706027h49.33096992a407.76661017 407.76661017 0 0 0-387.23523319-99.70792676 403.87004997 403.87004997 0 0 0-176.3199962 99.42312834l49.37886782 0.1423992z m318.08747142-154.69473436l30.41647122 13.59265184-0.47509554-32.60294637 23.33405234-23.95284163-32.41135471-9.03069899-16.15972124-28.42029322-19.38959424 26.90050529-33.36284033 6.41573166 20.57798036 25.56713088-4.75095544 32.31814795 32.22105758-10.78738741z m-218.42744258-44.95931418l-25.8053259-19.81938094-7.12902226 32.46054717-28.08759689 19.01029451 28.70509165 15.73122907 8.45980759 31.46116362 24.80853145-23.001356 33.26833904 0.47509554-13.30785343-29.65657727 12.1194673-31.3187644-33.030144 4.6577487z m449.54265474 90.7251257l-31.1763652-13.73505108 2.37677227 32.60294637-22.05245945 23.95284165 32.79324349 9.07730235 17.48921206 28.3723953 17.82190837-26.94710865 32.93434817-6.31993584-21.71846859-25.56842541 2.85186782-32.31814795-31.32005894 10.88318326zM647.5699938-58.39945324c260.91418864-69.7678456 528.76710242 48.47528012 658.93939831 271.46467555l37.26069509-0.09579582C1210.07923626-32.68862862 920.65154765-164.85710254 639.20598202-89.57711297a611.17611425 611.17611425 0 0 0-382.10368347 302.54653946l37.07039794-0.0945013a577.71747808 577.71747808 0 0 1 353.39859184-271.32227634z m-194.99629985 175.36851057l-30.60547383-11.02687698 3.04216494 33.07804191-20.8161754 26.61441232 32.07865837 6.08432988 17.82190838 27.65910471 16.49241758-29.46628014 31.84175787-9.50449998-21.6718652-24.28553798 1.8537788-33.554432-30.03587698 14.35384036z" p-id="2491"></path></svg>