<?xml version="1.0" encoding="UTF-8"?>
<svg width="70px" height="54px" viewBox="0 0 70 54" version="1.1" xmlns="http://www.w3.org/2000/svg" xmlns:xlink="http://www.w3.org/1999/xlink">
    <!-- Generator: Sketch 63 (92445) - https://sketch.com -->
    <title>待复核2</title>
    <desc>Created with Sketch.</desc>
    <g id="页面-1" stroke="none" stroke-width="1" fill="none" fill-rule="evenodd">
        <g id="A4复核详情-新增用户-通过" transform="translate(-1095.000000, -231.000000)" fill="#AADCAB">
            <g id="待复核2" transform="translate(1095.000000, 231.000000)">
                <path d="M46.6231928,38.5526774 C42.7947091,42.3581441 37.5474879,43.8930962 32.5678536,43.1530716 L30.6861574,44.2333775 C36.5616517,45.6830653 43.0414122,44.1230868 47.6337188,39.5582921 C49.8523871,37.3530595 51.3664684,34.707828 52.1811349,31.9076851 L50.3048061,32.983044 C49.4952142,35.0178449 48.2680423,36.9177167 46.6231928,38.5526774 L46.6231928,38.5526774 Z M39.6506117,46.7932477 L38.1867884,46.9482561 L38.9213349,48.1782355 L38.5439612,49.613567 L39.9879742,49.2383651 L41.2252953,49.9685926 L41.3812413,48.5135697 L42.5233163,47.5382194 L41.1803071,47.0134412 L40.6519645,45.6781182 L39.6506117,46.7932477 L39.6506117,46.7932477 Z M55.9294986,34.9928185 L57.343064,34.7378015 L56.4978524,33.5279015 L56.7140104,32.0426142 L55.3505077,32.5177277 L54.0681008,31.8531702 L54.0730778,33.3581489 L53.0567941,34.4278817 L54.4202967,34.8829158 L55.0741379,36.2132917 L55.9294986,34.9928185 L55.9294986,34.9928185 Z M49.5306388,44.1731396 L50.9540606,44.3580245 L50.5167678,42.9529574 L51.1750979,41.6082253 L49.7368427,41.648384 L48.7205589,40.6284129 L48.2680423,42.0584094 L46.9803657,42.7783547 L48.1373716,43.6179999 L48.3587993,45.0783578 L49.5306388,44.1731396 L49.5306388,44.1731396 Z M31.8835649,49.1133301 L33.3626121,48.8431809 L32.4770965,47.7133071 L32.6932544,46.2984429 L31.2698326,46.7731684 L29.9214561,46.1631258 L29.9264331,47.5882722 L28.8701381,48.6283225 L30.3038068,49.0337889 L30.9984397,50.2834595 L31.8835649,49.1137181 L31.8835649,49.1133301 L31.8835649,49.1133301 Z M12.8633272,52.8285854 L68.5705893,20.8574657 C69.9341896,20.0724323 70.4069069,18.332419 69.6174182,16.9770168 L61.0402916,2.21125109 C60.25051,0.856236839 58.4999725,0.386361465 57.1363722,1.17110373 L1.42920766,33.1426115 C0.0659977638,33.9277418 -0.407109987,35.6672701 0.382769148,37.0226724 L8.95950543,51.7884381 C9.74440752,53.1483994 11.4952379,53.6186628 12.8633272,52.8285854 Z M9.83506699,50.4581592 L1.97238374,36.9229548 C1.38382917,35.9079309 1.73602506,34.5976343 2.75728583,34.0129091 L57.2267389,2.76105572 C58.2479997,2.17633052 59.5662214,2.52650603 60.1543856,3.54123897 L68.0174592,17.0771224 C68.6057211,18.0922433 68.2538179,19.4020549 67.2325571,19.987168 L12.7577367,51.2435806 C11.7418433,51.8335438 10.4339659,51.4834653 9.83545733,50.4584502 L9.83506699,50.4581592 Z M53.1974187,45.0877669 C44.7766284,53.4587073 31.9739317,54.8137216 22.1297194,49.1580478 L20.7108842,49.9783897 C31.1844429,56.4188057 45.1136005,55.1236414 54.1992594,46.0933817 C59.7122134,40.6131837 62.3531459,33.368043 62.146942,26.1925494 L60.7338645,27.0072652 C60.7334742,33.5476898 58.2228219,40.0929646 53.1974187,45.0877669 L53.1974187,45.0877669 Z M19.6998702,21.0120861 C20.4996057,18.9871793 21.722191,17.0816814 23.3720176,15.4416767 C27.2001108,11.636695 32.4469417,10.1017429 37.4273568,10.8416705 L39.3086626,9.76184958 C33.432778,8.31167682 26.9534078,9.87165531 22.3607108,14.43645 C20.1424329,16.6416826 18.6279612,19.2869141 17.8132947,22.087057 L19.6998702,21.0120861 L19.6998702,21.0120861 Z M28.4427993,8.15181829 L29.9016457,8.00175694 L29.1670991,6.77138963 L29.5346164,5.34634026 L28.1008501,5.71164799 L26.8631387,4.98142057 L26.7121697,6.43159333 L25.5803415,7.40645859 L26.923741,7.93162484 L27.4516933,9.26655979 L28.4427993,8.1514303 L28.4427993,8.15181829 L28.4427993,8.15181829 Z M19.1311261,11.2168724 L17.7126812,11.0266524 L18.1502669,12.4217283 L17.4965233,13.7619983 L18.9351689,13.7320249 L19.946183,14.7467578 L20.3891359,13.3266555 L21.6665657,12.6168954 L20.5095598,11.7768622 L20.2884249,10.3165043 L19.1311261,11.2168724 L19.1311261,11.2168724 Z M38.257247,4.83630628 L36.7679532,4.99626178 L37.573056,6.18637346 L37.2562846,7.58154636 L38.7047867,7.21138853 L39.9925608,7.91154554 L40.0832203,6.49144324 L41.1998248,5.5312252 L39.8114371,5.03108532 L39.2129285,3.73630902 L38.257247,4.83630628 L38.257247,4.83630628 Z M16.8019879,8.91153424 C25.2231686,0.54136989 38.025475,-0.813644412 47.8700775,4.84125335 L49.2889127,4.0212995 C38.8153541,-2.41872858 24.8858061,-1.12356424 15.8009279,7.90669544 C10.2875836,13.3868934 7.64655346,20.6320341 7.85285497,27.8075278 L9.26632283,26.992424 C9.26134584,20.4569464 11.7765847,13.9067246 16.8019879,8.91153424 Z M13.2052763,19.8669831 L11.7967855,20.1171501 L12.6369225,21.3122088 L12.4253512,22.7819759 L13.7835842,22.3121005 L15.0667717,22.977143 L15.0514504,21.4921467 L16.0574873,20.432017 L14.6992544,19.981833 L14.0351666,18.6617392 C14.0355569,18.6621272 13.2052764,19.8669831 13.2052763,19.8669831 L13.2052763,19.8669831 Z" id="形状" fill-rule="nonzero"></path>
                <text id="通过" transform="translate(35.500000, 26.000000) rotate(-30.000000) translate(-35.500000, -26.000000) " font-family="PingFangSC-Regular, PingFang SC" font-size="14" font-weight="normal">
                    <tspan x="21" y="31">通过</tspan>
                </text>
            </g>
        </g>
    </g>
</svg>