<?xml version="1.0" standalone="no"?>
<!DOCTYPE svg PUBLIC "-//W3C//DTD SVG 1.1//EN" "http://www.w3.org/Graphics/SVG/1.1/DTD/svg11.dtd">
<svg t="1582613435446" class="icon" viewBox="0 0 1148 1024" version="1.1" 
xmlns="http://www.w3.org/2000/svg" 
p-id="11541"
 xmlns:xlink="http://www.w3.org/1999/xlink"
  width="224.21875" height="200"><defs><style type="text/css"></style></defs><path d="M1047.102439 206.673171H101.400976A103.773659 103.773659 0 0 0 0 307.949268v607.157073a103.773659 103.773659 0 0 0 101.376 101.226147h945.726439a103.773659 103.773659 0 0 0 101.376-101.226147v-607.157073a103.773659 103.773659 0 0 0-101.376-101.251122z m33.767024 708.408195a31.96878 31.96878 0 0 1-30.020683 33.816975H101.60078a32.018732 32.018732 0 0 1-33.866926-33.816975V476.55961h1013.260487v438.521756h-0.124878z m0-506.055805H67.509073V307.949268a31.96878 31.96878 0 0 1 29.970732-33.841951h949.272975a32.018732 32.018732 0 0 1 33.866927 33.841951v101.226147l0.249756-0.124878z" p-id="11542"></path><path d="M401.732683 103.448976a32.54322 32.54322 0 0 1 30.595122-34.391415h279.851707a32.593171 32.593171 0 0 1 34.466342 34.391415v68.932683h69.007609v-68.932683A105.996488 105.996488 0 0 0 712.179512 0.124878H436.298927a105.996488 105.996488 0 0 0-103.473951 103.324098v68.932683h69.032585l-0.124878-68.932683z m103.473951 516.120975h138.065171a34.59122 34.59122 0 0 0 31.594146-52.298927 34.59122 34.59122 0 0 0-31.594146-16.633756h-138.065171a34.59122 34.59122 0 0 0-31.594146 52.298927c6.618537 10.989268 18.781659 17.383024 31.594146 16.633756z" p-id="11543"></path></svg>
