<?xml version="1.0" standalone="no"?><!DOCTYPE svg PUBLIC "-//W3C//DTD SVG 1.1//EN" "http://www.w3.org/Graphics/SVG/1.1/DTD/svg11.dtd"><svg t="1582613463555" class="icon" viewBox="0 0 1024 1024" version="1.1" xmlns="http://www.w3.org/2000/svg" p-id="12058" xmlns:xlink="http://www.w3.org/1999/xlink" width="200" height="200"><defs><style type="text/css"></style></defs><path d="M512 0C229.376 0 0 229.376 0 512s229.376 512 512 512 512-229.376 512-512S794.624 0 512 0z m0 970.173217C258.626783 970.173217 53.826783 764.772174 53.826783 512S258.626783 53.826783 512 53.826783c253.373217 0 458.173217 205.401043 458.173217 458.173217S765.373217 970.173217 512 970.173217z m8.192-502.650434c-7.012174 0-14.024348-2.916174-19.300174-8.192l-156.827826-156.226783c-10.529391-10.529391-10.529391-28.093217 0-39.201391 10.529391-10.529391 28.093217-10.529391 39.201391 0l136.926609 136.904348 136.904348-136.904348c10.551652-10.529391 28.115478-10.529391 39.223652 0 10.529391 10.529391 10.529391 28.093217 0 39.201391l-156.827826 156.226783a25.288348 25.288348 0 0 1-19.300174 8.192z m133.409391 0H386.226087a27.469913 27.469913 0 0 1-27.514435-27.492174c0-15.226435 12.288-27.514435 27.514435-27.514435h266.818783c15.204174 0 27.492174 12.288 27.492173 27.514435a26.624 26.624 0 0 1-26.913391 27.492174z m0 128.155826H386.226087a27.469913 27.469913 0 0 1-27.514435-27.514435c0-15.204174 12.288-27.492174 27.514435-27.492174h266.818783c15.204174 0 27.492174 12.288 27.492173 27.492174a26.624 26.624 0 0 1-26.913391 27.514435z m-133.409391 146.877217a27.469913 27.469913 0 0 1-27.492174-27.514435V440.030609a27.469913 27.469913 0 1 1 54.984348 0V715.01913c0 15.226435-12.288 27.514435-27.492174 27.514435z" p-id="12059"></path></svg>