<?xml version="1.0" standalone="no"?><!DOCTYPE svg PUBLIC "-//W3C//DTD SVG 1.1//EN" "http://www.w3.org/Graphics/SVG/1.1/DTD/svg11.dtd"><svg t="1582613454434" class="icon" viewBox="0 0 1024 1024" version="1.1" xmlns="http://www.w3.org/2000/svg" p-id="11929" xmlns:xlink="http://www.w3.org/1999/xlink" width="200" height="200"><defs><style type="text/css"></style></defs><path d="M493.568 1009.737143a22.308571 22.308571 0 0 0 35.254857 0m0.512 0l478.354286-458.166857a51.2 51.2 0 0 0-1.024-73.581715 54.784 54.784 0 0 0-75.702857 0l-419.254857 401.042286-419.108572-401.042286a55.296 55.296 0 0 0-75.776 0c-20.845714 20.260571-22.454857 53.833143-1.097143 73.581715l478.354286 458.166857h35.254857z" p-id="11930"></path><path d="M493.568 547.328a22.308571 22.308571 0 0 0 35.254857 0m0.512 0l478.354286-458.166857a51.2 51.2 0 0 0-1.024-73.581714 54.784 54.784 0 0 0-75.702857 0L511.707429 416.621714 92.598857 15.579429a55.296 55.296 0 0 0-75.776 0C-4.022857 35.84-5.632 69.412571 15.725714 89.161143l478.354286 458.166857h35.254857z" p-id="11931"></path></svg>