<?xml version="1.0" encoding="UTF-8"?>
<svg width="31px" height="31px" viewBox="0 0 31 31" version="1.1" xmlns="http://www.w3.org/2000/svg" xmlns:xlink="http://www.w3.org/1999/xlink">
    <!-- Generator: Sketch 63 (92445) - https://sketch.com -->
    <title>编组 33备份 2</title>
    <desc>Created with Sketch.</desc>
    <defs>
        <linearGradient x1="100%" y1="0%" x2="0%" y2="100%" id="linearGradient-1">
            <stop stop-color="#FFE0D7" offset="0%"></stop>
            <stop stop-color="#FFFFFF" stop-opacity="0" offset="100%"></stop>
        </linearGradient>
    </defs>
    <g id="页面-1" stroke="none" stroke-width="1" fill="none" fill-rule="evenodd">
        <g id="2_图标按钮" transform="translate(-275.000000, -386.000000)">
            <g id="编组-33备份-2" transform="translate(275.000000, 386.000000)">
                <g id="编组-40" transform="translate(1.000000, 1.000000)" fill="url(#linearGradient-1)">
                    <path d="M15,0 C23.2842712,0 30,6.71572875 30,15 C30,23.2842712 23.2842712,30 15,30 C6.71572875,30 0,23.2842712 0,15 C0,6.71572875 6.71572875,0 15,0 Z M15,3 C8.372583,3 3,8.372583 3,15 C3,21.627417 8.372583,27 15,27 C21.627417,27 27,21.627417 27,15 C27,8.372583 21.627417,3 15,3 Z M14,7 L14,24 L11,24 L11,21 L7,21 L7,18 L11,18 L11,17 L7,17 L7,14 L11,14 L11,13 L7,13 L7,10 L11,10 L11,7 L14,7 Z M19,7 L19,10 L23,10 L23,13 L19,13 L19,14 L23,14 L23,17 L19,17 L19,18 L23,18 L23,21 L19,21 L19,24 L16,24 L16,7 L19,7 Z" id="形状结合"></path>
                </g>
                <g id="编组-40" fill="#EA5404">
                    <path d="M15,0 C23.2842712,0 30,6.71572875 30,15 C30,23.2842712 23.2842712,30 15,30 C6.71572875,30 0,23.2842712 0,15 C0,6.71572875 6.71572875,0 15,0 Z M15,3 C8.372583,3 3,8.372583 3,15 C3,21.627417 8.372583,27 15,27 C21.627417,27 27,21.627417 27,15 C27,8.372583 21.627417,3 15,3 Z" id="椭圆形" fill-rule="nonzero"></path>
                    <path d="M14,7 L14,24 L11,24 L11,22 L7,22 L7,19 L11,19 L11,17 L7,17 L7,14 L11,14 L11,12 L7,12 L7,9 L11,9 L11,7 L14,7 Z M19,14 L23,14 L23,17 L19,17 L19,19 L23,19 L23,22 L19,22 L19,24 L16,24 L16,7 L19,7 L19,9 L23,9 L23,12 L19,12 L19,14 Z" id="形状结合"></path>
                </g>
            </g>
        </g>
    </g>
</svg>