<?xml version="1.0" encoding="UTF-8"?>
<svg width="32px" height="28px" viewBox="0 0 32 28" version="1.1" xmlns="http://www.w3.org/2000/svg" xmlns:xlink="http://www.w3.org/1999/xlink">
    <!-- Generator: Sketch 63 (92445) - https://sketch.com -->
    <title>编组 23</title>
    <desc>Created with Sketch.</desc>
    <defs>
        <linearGradient x1="100%" y1="7.3964497%" x2="0%" y2="92.6035503%" id="linearGradient-1">
            <stop stop-color="#FFE1D7" offset="0%"></stop>
            <stop stop-color="#FFFFFF" stop-opacity="0" offset="100%"></stop>
        </linearGradient>
    </defs>
    <g id="页面-1" stroke="none" stroke-width="1" fill="none" fill-rule="evenodd">
        <g id="2_图标按钮" transform="translate(-703.000000, -476.000000)">
            <g id="编组-23" transform="translate(703.000000, 476.000000)">
                <polygon id="Shape_6_copy" fill="url(#linearGradient-1)" points="32 28 6 28 6 25 9 25 9 4 24 4 24 11 29 15 29 25 32 25"></polygon>
                <path d="M27,23 L18,23 L18,5 L27,12 L27,23 Z M21,23 L24,23 L24,13 L21,11 L21,23 Z M11,7 L14,7 L14,12 L11,12 L11,7 Z M11,15 L14,15 L14,20 L11,20 L11,15 Z" id="形状" fill="#EA5404"></path>
                <path d="M30,26 L0,26 L0,23 L3,23 L3,0 L21,0 L21,23 L30,23 L30,26 Z M18,3 L6,3 L6,23 L18,23 L18,3 Z" id="形状" fill="#EA5404"></path>
            </g>
        </g>
    </g>
</svg>