<?xml version="1.0" encoding="UTF-8"?>
<svg width="36px" height="36px" viewBox="0 0 36 36" version="1.1" xmlns="http://www.w3.org/2000/svg" xmlns:xlink="http://www.w3.org/1999/xlink">
    <!-- Generator: Sketch 63 (92445) - https://sketch.com -->
    <title>部门管理icon</title>
    <desc>Created with Sketch.</desc>
    <defs>
        <linearGradient x1="100%" y1="32.5413223%" x2="0%" y2="67.4586777%" id="linearGradient-1">
            <stop stop-color="#FFE2D7" offset="0%"></stop>
            <stop stop-color="#FFFFFF" stop-opacity="0" offset="100%"></stop>
        </linearGradient>
        <linearGradient x1="100%" y1="0%" x2="0%" y2="100%" id="linearGradient-2">
            <stop stop-color="#FFE2D7" offset="0%"></stop>
            <stop stop-color="#FFFFFF" stop-opacity="0" offset="100%"></stop>
        </linearGradient>
        <linearGradient x1="100%" y1="32.9861111%" x2="0%" y2="67.0138889%" id="linearGradient-3">
            <stop stop-color="#FFE2D7" offset="0%"></stop>
            <stop stop-color="#FFFFFF" stop-opacity="0" offset="100%"></stop>
        </linearGradient>
    </defs>
    <g id="页面-1" stroke="none" stroke-width="1" fill="none" fill-rule="evenodd">
        <g id="2_图标按钮" transform="translate(-614.000000, -472.000000)">
            <g id="编组-33备份-14" transform="translate(617.000000, 476.000000)">
                <g id="编组-39">
                    <path d="M16,16 C19.3137085,16 22,18.6862915 22,22 L22,29 L0,29 L0,22 C0,18.6862915 2.6862915,16 6,16 L16,16 Z" id="形状结合" fill="url(#linearGradient-1)"></path>
                    <path d="M12,0 C15.8659932,0 19,3.13400675 19,7 C19,10.8659932 15.8659932,14 12,14 C8.13400675,14 5,10.8659932 5,7 C5,3.13400675 8.13400675,0 12,0 Z" id="椭圆形" fill="url(#linearGradient-2)"></path>
                </g>
                <g id="编组-39" transform="translate(12.000000, 3.000000)">
                    <path d="M15,13.3333333 C17.7614237,13.3333333 20,15.5719096 20,18.3333333 L20,25 L0,25 L0,18.3333333 C0,15.5719096 2.23857625,13.3333333 5,13.3333333 L15,13.3333333 Z" id="形状结合" fill="url(#linearGradient-3)"></path>
                    <path d="M11,0 C14.221661,0 16.8333333,2.61167229 16.8333333,5.83333333 C16.8333333,9.05499437 14.221661,11.6666667 11,11.6666667 C7.77833896,11.6666667 5.16666667,9.05499437 5.16666667,5.83333333 C5.16666667,2.61167229 7.77833896,0 11,0 Z" id="椭圆形" fill="url(#linearGradient-2)"></path>
                </g>
                <g id="编组-38">
                    <path d="M14,15 C17.3137085,15 20,17.6862915 20,21 L20,29 L0,29 L0,21 C0,17.6862915 2.6862915,15 6,15 L14,15 Z M14,18 L6,18 C4.40231912,18 3.09633912,19.24892 3.00509269,20.8237272 L3,21 L3,26 L17,26 L17,21 C17,19.4023191 15.75108,18.0963391 14.1762728,18.0050927 L14,18 Z" id="形状结合" fill="#EA5404" fill-rule="nonzero"></path>
                    <path d="M24.5859283,15 C27.8996368,15 30.5859283,17.6862915 30.5859283,21 L30.5859283,27 L21.5946001,27 L21.4486001,24 L27.5859283,24 L27.5859283,21 C27.5859283,19.4023191 26.3370083,18.0963391 24.7622011,18.0050927 L23.5859283,18 L21.1857658,18.0002902 C21.1247521,17.2487196 20.8972982,16.6324394 20.5034043,16.1514495 C20.1608599,15.7331633 19.7359562,15.350881 19.2286932,15.0046026 C19.3084431,15.0015084 19.3876705,15 19.4661944,15 L24.5859283,15 Z M22,2 C25.3137085,2 28,4.6862915 28,8 C28,11.3137085 25.3137085,14 22,14 C20.4005022,14 18.9471868,13.3741189 17.8716001,12.3539031 C18.338137,11.7120441 18.6950826,10.982575 18.9294427,10.1987096 C19.4902338,11.4285714 20.6546219,11.4285714 22,11.4285714 C23.8935477,11.4285714 25.4285714,9.89354771 25.4285714,8 C25.4285714,6.10645229 23.8935477,4.57142857 22,4.57142857 L21.7255914,4.57182654 C20.5532038,4.57698064 19.5468122,4.64888506 19.0030589,5.65201838 C18.827069,4.85106389 18.5570045,4.07234208 18.1938714,3.36207461 C19.2285346,2.51110837 20.5545794,2 22,2 Z" id="形状结合" fill="#EA5404" fill-rule="nonzero"></path>
                    <circle id="椭圆形" stroke="#EA5404" stroke-width="3" cx="10" cy="7" r="5.5"></circle>
                </g>
            </g>
        </g>
    </g>
</svg>