<?xml version="1.0" standalone="no"?><!DOCTYPE svg PUBLIC "-//W3C//DTD SVG 1.1//EN" "http://www.w3.org/Graphics/SVG/1.1/DTD/svg11.dtd"><svg t="1582613471077" class="icon" viewBox="0 0 1129 1024" version="1.1" xmlns="http://www.w3.org/2000/svg" p-id="12186" xmlns:xlink="http://www.w3.org/1999/xlink" width="220.5078125" height="200"><defs><style type="text/css"></style></defs><path d="M789.36523 1011.358897a22.033655 22.033655 0 0 0 23.269518-23.234207v-352.609104a176.728276 176.728276 0 0 0-165.711449-181.212689h-174.644965a176.304552 176.304552 0 0 0-165.287724 181.212689v352.609104a22.033655 22.033655 0 0 0 23.234207 23.234207h459.140413z" p-id="12187"></path><path d="M600.313644 635.586207v105.931034h105.931035v70.62069h-105.931035v105.931035h-70.62069v-105.931035h-105.931034v-70.62069h105.931034v-105.931034h70.62069z" p-id="12188"></path><path d="M206.956403 1011.358897a21.645241 21.645241 0 0 0 22.881103-23.234207V620.755862a18.361379 18.361379 0 0 0-4.484414-18.749793 18.785103 18.785103 0 0 0-16.313379-6.956138H138.03061A139.158069 139.158069 0 0 0 0.037782 732.619034v254.658207a22.033655 22.033655 0 0 0 22.845793 23.304828h184.072828v0.776828z m889.326345 0a22.033655 22.033655 0 0 0 23.269517-23.234207v-255.505656a138.769655 138.769655 0 0 0-137.957517-139.581793h-71.009104c-4.908138 0-13.876966 2.048-16.313379 6.956138a46.962759 46.962759 0 0 0-4.519724 18.785104v367.298207a21.645241 21.645241 0 0 0 22.881103 23.269517l183.613793 2.01269z m-135.521104-452.57269a163.239724 163.239724 0 1 0-160.768-163.275035 161.191724 161.191724 0 0 0 160.768 163.275035z m-797.448827 0A160.80331 160.80331 0 0 0 324.116127 395.475862a160.80331 160.80331 0 1 0-321.606621 0 160.80331 160.80331 0 0 0 160.803311 163.275035z" p-id="12189"></path><path d="M559.600817 416.73269a207.307034 207.307034 0 0 0 206.91862-209.355035 206.918621 206.918621 0 0 0-413.837241 0 207.730759 207.730759 0 0 0 206.918621 209.390345z" p-id="12190"></path></svg>