<?xml version="1.0" encoding="UTF-8"?>
<svg width="32px" height="31px" viewBox="0 0 32 31" version="1.1" xmlns="http://www.w3.org/2000/svg" xmlns:xlink="http://www.w3.org/1999/xlink">
    <!-- Generator: Sketch 63 (92445) - https://sketch.com -->
    <title>部门计划备份</title>
    <desc>Created with Sketch.</desc>
    <g id="页面-1" stroke="none" stroke-width="1" fill="none" fill-rule="evenodd">
        <g id="2_图标按钮" transform="translate(-105.000000, -681.000000)">
            <g id="部门计划备份" transform="translate(105.000000, 681.000000)">
                <path d="M22.3541279,28.642721 C22.5317787,28.6498163 22.7053267,28.6037077 22.8311507,28.5159847 C22.9569747,28.4282617 23.0231097,28.3072661 23.0129328,28.1834102 L23.0129328,21.2212242 C23.0866172,19.3420241 21.0116145,17.7599547 18.3203928,17.6434342 L5.37357724,17.6434342 C2.68413286,17.760022 0.612550245,19.3433836 0.692595207,21.2212242 L0.692595207,28.1834102 C0.682418282,28.3072661 0.748553323,28.4282617 0.874377336,28.5159847 C1.00020135,28.6037077 1.17374932,28.6498163 1.35140008,28.642721 L22.3541279,28.642721 Z" id="路径" fill="#EA5404" fill-rule="nonzero"></path>
                <circle id="椭圆形" stroke="#FFFAF5" stroke-width="2" fill="#FFC598" cx="24" cy="23" r="7"></circle>
                <path d="M25,19 L25,22 L28,22 L28,24 L25,24 L25,27 L23,27 L23,24 L20,24 L20,22 L23,22 L23,19 L25,19 Z" id="形状结合备份-2" fill="#FFFFFF"></path>
                <path d="M13.4868411,15.0132941 C15.4901244,15.0094701 17.4089449,14.2105796 18.8171258,12.7940588 C20.2253067,11.377538 21.0062632,9.46066224 20.9865421,7.4691764 C20.9865421,3.35140629 17.6288116,0.0132940583 13.4868411,0.0132940583 C9.34487055,0.0132940583 5.98714002,3.35140629 5.98714002,7.4691764 C5.97139145,9.45948475 6.7536351,11.3740749 8.16095873,12.7897333 C9.56828235,14.2053917 11.4847888,15.0055349 13.4868411,15.0132941 Z" id="路径" fill="#EA5404" fill-rule="nonzero"></path>
            </g>
        </g>
    </g>
</svg>