<?xml version="1.0" encoding="UTF-8"?>
<svg width="31px" height="31px" viewBox="0 0 31 31" version="1.1" xmlns="http://www.w3.org/2000/svg" xmlns:xlink="http://www.w3.org/1999/xlink">
    <!-- Generator: Sketch 63 (92445) - https://sketch.com -->
    <title>编组 33备份 16</title>
    <desc>Created with Sketch.</desc>
    <defs>
        <linearGradient x1="100%" y1="0%" x2="0%" y2="100%" id="linearGradient-1">
            <stop stop-color="#FFE1D7" offset="0%"></stop>
            <stop stop-color="#FFFFFF" stop-opacity="0" offset="100%"></stop>
        </linearGradient>
        <linearGradient x1="100%" y1="11.71875%" x2="0%" y2="88.28125%" id="linearGradient-2">
            <stop stop-color="#FFE1D7" offset="0%"></stop>
            <stop stop-color="#FFFFFF" stop-opacity="0" offset="100%"></stop>
        </linearGradient>
    </defs>
    <g id="页面-1" stroke="none" stroke-width="1" fill="none" fill-rule="evenodd">
        <g id="2_图标按钮" transform="translate(-789.000000, -475.000000)">
            <g id="编组-33备份-16" transform="translate(789.000000, 475.000000)">
                <g id="编组-45" transform="translate(1.000000, 1.000000)">
                    <path d="M15,0 C23.2842712,0 30,6.71572875 30,15 C30,23.2842712 23.2842712,30 15,30 C6.71572875,30 0,23.2842712 0,15 C0,6.71572875 6.71572875,0 15,0 Z M15,3 C8.372583,3 3,8.372583 3,15 C3,21.627417 8.372583,27 15,27 C21.627417,27 27,21.627417 27,15 C27,8.372583 21.627417,3 15,3 Z" id="椭圆形" fill="url(#linearGradient-1)"></path>
                    <path d="M13,22 L13,8 L10.7253731,8 L10.7253731,16.9793103 L9.27462687,17.5393103 L9.27462687,8.83034483 L7,8.83034483 L7,20.7834483 L10.7253731,19.3737931 L10.7253731,22 L13,22 Z M23,22 L23,19.5668966 C22.4330709,19.3737931 21.9045276,19.1452874 21.4143701,18.8813793 C20.9242126,18.6174713 20.4724409,18.3245977 20.0590551,18.0027586 C20.8031496,17.0758621 21.4202756,16.0073563 21.9104331,14.7972414 C22.4005906,13.5871264 22.7637795,12.183908 23,10.5875862 L23,10.5875862 L23,8.67586207 L17.6850394,8.67586207 L17.9507874,8 L15.3287402,8 L14.2834646,10.5875862 L20.8740157,10.5875862 C20.519685,12.9949425 19.7283465,14.9645977 18.5,16.4965517 C17.3425197,15.0675862 16.5866142,13.2845977 16.2322835,11.1475862 L16.2322835,11.1475862 L14.1062992,11.1475862 C14.5787402,13.9797701 15.523622,16.2648276 16.9409449,18.0027586 C16.0905512,18.6593103 15.1102362,19.1806897 14,19.5668966 L14,19.5668966 L14,22 C14.8740157,21.703908 15.6830709,21.3563218 16.4271654,20.9572414 C17.1712598,20.5581609 17.8622047,20.1011494 18.5,19.5862069 C19.7165354,20.5903448 21.2165354,21.3949425 23,22 L23,22 Z" id="收" fill="url(#linearGradient-2)"></path>
                </g>
                <g id="编组-45" fill="#EA5404" fill-rule="nonzero">
                    <path d="M15,0 C23.2842712,0 30,6.71572875 30,15 C30,23.2842712 23.2842712,30 15,30 C6.71572875,30 0,23.2842712 0,15 C0,6.71572875 6.71572875,0 15,0 Z M15,3 C8.372583,3 3,8.372583 3,15 C3,21.627417 8.372583,27 15,27 C21.627417,27 27,21.627417 27,15 C27,8.372583 21.627417,3 15,3 Z" id="椭圆形"></path>
                    <path d="M13,22 L13,8 L10.7253731,8 L10.7253731,16.9793103 L9.27462687,17.5393103 L9.27462687,8.83034483 L7,8.83034483 L7,20.7834483 L10.7253731,19.3737931 L10.7253731,22 L13,22 Z M23,22 L23,19.5668966 C22.4330709,19.3737931 21.9045276,19.1452874 21.4143701,18.8813793 C20.9242126,18.6174713 20.4724409,18.3245977 20.0590551,18.0027586 C20.8031496,17.0758621 21.4202756,16.0073563 21.9104331,14.7972414 C22.4005906,13.5871264 22.7637795,12.183908 23,10.5875862 L23,10.5875862 L23,8.67586207 L17.6850394,8.67586207 L17.9507874,8 L15.3287402,8 L14.2834646,10.5875862 L20.8740157,10.5875862 C20.519685,12.9949425 19.7283465,14.9645977 18.5,16.4965517 C17.3425197,15.0675862 16.5866142,13.2845977 16.2322835,11.1475862 L16.2322835,11.1475862 L14.1062992,11.1475862 C14.5787402,13.9797701 15.523622,16.2648276 16.9409449,18.0027586 C16.0905512,18.6593103 15.1102362,19.1806897 14,19.5668966 L14,19.5668966 L14,22 C14.8740157,21.703908 15.6830709,21.3563218 16.4271654,20.9572414 C17.1712598,20.5581609 17.8622047,20.1011494 18.5,19.5862069 C19.7165354,20.5903448 21.2165354,21.3949425 23,22 L23,22 Z" id="收"></path>
                </g>
            </g>
        </g>
    </g>
</svg>