<?xml version="1.0" standalone="no"?><!DOCTYPE svg PUBLIC "-//W3C//DTD SVG 1.1//EN" "http://www.w3.org/Graphics/SVG/1.1/DTD/svg11.dtd"><svg t="1582613408537" class="icon" viewBox="0 0 1024 1024" version="1.1" xmlns="http://www.w3.org/2000/svg" p-id="11020" xmlns:xlink="http://www.w3.org/1999/xlink" width="200" height="200"><defs><style type="text/css"></style></defs><path d="M225.77502939 985.0768592H418.55058123a28.95005099 28.95005099 0 0 0 28.99822194-28.66103255 28.95005099 28.95005099 0 0 0-28.99822194-28.70920169H225.77502939c-62.57257517-0.09634009-113.19903799-50.19293518-113.29537809-111.99479331V176.01684385c0-61.70551806 50.81914299-111.94662235 113.29537809-111.94662239h515.89859317c62.42806418 0 113.19903799 50.24110432 113.1990362 111.85028409v234.68328151c1.25241564 14.98080956 13.87290317 26.54156159 29.09456202 26.54156163s27.84214636-11.56075202 29.04639108-26.49339248V175.96867471C912.86910262 82.56742688 836.23094595 6.79632551 741.67362256 6.65181626H225.72685843C131.16953504 6.79632551 54.53137836 82.51925592 54.38686913 176.01684385v639.6949878a171.14731093 171.14731093 0 0 0 171.38816026 169.36502755z m15.17348791-705.3985985h421.48577899a28.95005099 28.95005099 0 0 0 29.04639109-28.70920168 28.95005099 28.95005099 0 0 0-29.09456201-28.66103433h-421.48577722a28.95005099 28.95005099 0 0 0-28.99822191 28.66103433 28.90188185 28.90188185 0 0 0 29.04639106 28.70920168z m271.87036888 198.60409882c0-15.89603582-13.00584603-28.70920349-29.0463911-28.75737263H240.9485173a28.95005099 28.95005099 0 0 0-29.04639106 28.75737263 28.90188185 28.90188185 0 0 0 29.04639106 28.66103254H483.09811815a29.52808966 29.52808966 0 0 0 20.90569482-8.18886543 28.80554177 28.80554177 0 0 0 8.86324416-20.47216711z m-271.87036888 198.55592964h74.37417649a28.90188185 28.90188185 0 0 1 29.04639108 28.70920171c0 15.79969574-13.00584603 28.66103255-29.04639108 28.70920348H240.9485173a28.95005099 28.95005099 0 0 1-29.04639106-28.70920348 28.90188185 28.90188185 0 0 1 29.04639106-28.70920171z m454.72294287 236.03203545l-124.27809325-122.68848822a35.74199335 35.74199335 0 0 1 0-52.02338768 36.75355968 36.75355968 0 0 1 52.79410476 0c30.10612654 33.47801317 63.92132911 63.24695215 94.02745565 96.67679436l199.42298496-197.15900481a36.65721962 36.65721962 0 0 1 52.69776648 0 35.74199335 35.74199335 0 0 1 0 52.1197278l-225.82003914 223.17069862c-11.22356444 14.88446948-33.81520254 14.88446948-48.89235041 0v-0.04817092zM746.82779073 1018.21768478C896.49137001 1018.21768478 1017.78293335 898.3230445 1017.78293335 750.44174863c0-147.88129588-121.29156515-267.77593615-270.95514262-267.77593618s-270.9551426 119.94280944-270.95514259 267.82410532c0 147.88129588 121.29156515 267.72776702 270.95514259 267.72776701z" p-id="11021"></path></svg>