<?xml version="1.0" encoding="UTF-8"?>
<svg width="36px" height="36px" viewBox="0 0 36 36" version="1.1" xmlns="http://www.w3.org/2000/svg" xmlns:xlink="http://www.w3.org/1999/xlink">
    <!-- Generator: Sketch 63 (92445) - https://sketch.com -->
    <title>用户管理icon</title>
    <desc>Created with Sketch.</desc>
    <defs>
        <linearGradient x1="100%" y1="32.9861111%" x2="0%" y2="67.0138889%" id="linearGradient-1">
            <stop stop-color="#FFE2D7" offset="0%"></stop>
            <stop stop-color="#FFFFFF" stop-opacity="0" offset="100%"></stop>
        </linearGradient>
        <linearGradient x1="100%" y1="0%" x2="0%" y2="100%" id="linearGradient-2">
            <stop stop-color="#FFE2D7" offset="0%"></stop>
            <stop stop-color="#FFFFFF" stop-opacity="0" offset="100%"></stop>
        </linearGradient>
    </defs>
    <g id="页面-1" stroke="none" stroke-width="1" fill="none" fill-rule="evenodd">
        <g id="2_图标按钮" transform="translate(-529.000000, -472.000000)">
            <g id="编组-44" transform="translate(534.000000, 475.000000)">
                <path d="M20,16 C23.3137085,16 26,18.6862915 26,22 L26,30 L2,30 L2,22 C2,18.6862915 4.6862915,16 8,16 L20,16 Z" id="形状结合" fill="url(#linearGradient-1)"></path>
                <path d="M14,0 C17.8659932,0 21,3.13400675 21,7 C21,10.8659932 17.8659932,14 14,14 C10.1340068,14 7,10.8659932 7,7 C7,3.13400675 10.1340068,0 14,0 Z" id="椭圆形" fill="url(#linearGradient-2)"></path>
                <path d="M18,15 C21.3137085,15 24,17.6862915 24,21 L24,30 L0,30 L0,21 C0,17.6862915 2.6862915,15 6,15 L18,15 Z M18,18 L6,18 C4.40231912,18 3.09633912,19.24892 3.00509269,20.8237272 L3,21 L3,27 L21,27 L21,21 C21,19.4023191 19.75108,18.0963391 18.1762728,18.0050927 L18,18 Z" id="形状结合" fill="#EA5404" fill-rule="nonzero"></path>
                <circle id="椭圆形" stroke="#EA5404" stroke-width="3" cx="12" cy="7" r="5.5"></circle>
            </g>
        </g>
    </g>
</svg>