<?xml version="1.0" encoding="UTF-8"?>
<svg width="28px" height="30px" viewBox="0 0 28 30" version="1.1" xmlns="http://www.w3.org/2000/svg" xmlns:xlink="http://www.w3.org/1999/xlink">
    <!-- Generator: Sketch 63 (92445) - https://sketch.com -->
    <title>编组 33备份 17</title>
    <desc>Created with Sketch.</desc>
    <defs>
        <linearGradient x1="89.8596939%" y1="0%" x2="10.1403061%" y2="100%" id="linearGradient-1">
            <stop stop-color="#FFE2D7" offset="0%"></stop>
            <stop stop-color="#FFFFFF" stop-opacity="0" offset="100%"></stop>
        </linearGradient>
    </defs>
    <g id="页面-1" stroke="none" stroke-width="1" fill="none" fill-rule="evenodd">
        <g id="2_图标按钮" transform="translate(-877.000000, -476.000000)">
            <g id="编组-33备份-17" transform="translate(877.000000, 476.000000)">
                <path d="M27,2 L27,30 L2,30 L2,2 L27,2 Z" id="形状结合备份-6" fill="url(#linearGradient-1)"></path>
                <path d="M24.7573593,26.1715729 L17,26.1715729 L17,23.1715729 L21.757,23.171 L21.7573593,14 L24.7573593,14 L24.7573593,26.1715729 Z" id="形状结合备份-9" fill="#EA5404" transform="translate(20.878680, 20.085786) rotate(-315.000000) translate(-20.878680, -20.085786) "></path>
                <path d="M25,0 L25,28 L25,28 L25,13 L22,13 L22,3 L3,3 L3,25 L13.999,25 L14,28 L0,28 L0,0 L25,0 Z" id="形状结合" fill="#EA5404"></path>
                <rect id="矩形" fill="#EA5404" x="6" y="6" width="13" height="3"></rect>
                <rect id="矩形备份-21" fill="#EA5404" x="6" y="11" width="7" height="3"></rect>
            </g>
        </g>
    </g>
</svg>