<?xml version="1.0" encoding="UTF-8"?>
<svg width="28px" height="30px" viewBox="0 0 28 30" version="1.1" xmlns="http://www.w3.org/2000/svg" xmlns:xlink="http://www.w3.org/1999/xlink">
    <!-- Generator: Sketch 63 (92445) - https://sketch.com -->
    <title>编组 33备份 11</title>
    <desc>Created with Sketch.</desc>
    <defs>
        <linearGradient x1="89.8596939%" y1="0%" x2="10.1403061%" y2="100%" id="linearGradient-1">
            <stop stop-color="#FFE2D7" offset="0%"></stop>
            <stop stop-color="#FFFFFF" stop-opacity="0" offset="100%"></stop>
        </linearGradient>
    </defs>
    <g id="页面-1" stroke="none" stroke-width="1" fill="none" fill-rule="evenodd">
        <g id="2_图标按钮" transform="translate(-361.000000, -476.000000)">
            <g id="编组-33备份-11" transform="translate(356.000000, 472.000000)">
                <path d="M32,6 L32,34 L7,34 L7,6 L32,6 Z" id="形状结合备份-6" fill="url(#linearGradient-1)"></path>
                <path d="M30,4 L30,32 L30,32 L30,15 L27,15 L27,7 L8,7 L8,29 L19.999,29 L20,32 L5,32 L5,4 L30,4 Z" id="形状结合" fill="#EA5404"></path>
                <rect id="矩形" fill="#EA5404" x="11" y="10" width="13" height="3"></rect>
                <rect id="矩形备份-21" fill="#EA5404" x="11" y="15" width="7" height="3"></rect>
                <rect id="矩形" fill="#EA5404" transform="translate(29.500000, 28.500000) rotate(-315.000000) translate(-29.500000, -28.500000) " x="26" y="27" width="7" height="3"></rect>
                <circle id="椭圆形" stroke="#EA5404" stroke-width="3" cx="24.5" cy="23.5" r="4.5"></circle>
            </g>
        </g>
    </g>
</svg>