<?xml version="1.0" encoding="UTF-8"?>
<svg width="31px" height="32px" viewBox="0 0 31 32" version="1.1" xmlns="http://www.w3.org/2000/svg" xmlns:xlink="http://www.w3.org/1999/xlink">
    <!-- Generator: Sketch 63 (92445) - https://sketch.com -->
    <title>编组 33备份 7</title>
    <desc>Created with Sketch.</desc>
    <defs>
        <linearGradient x1="100%" y1="0.00200652099%" x2="0.512035473%" y2="99.4859786%" id="linearGradient-1">
            <stop stop-color="#FFE2D7" offset="0%"></stop>
            <stop stop-color="#FFFFFF" stop-opacity="0" offset="100%"></stop>
        </linearGradient>
    </defs>
    <g id="页面-1" stroke="none" stroke-width="1" fill="none" fill-rule="evenodd">
        <g id="2_图标按钮" transform="translate(-618.000000, -387.000000)">
            <g id="编组-33备份-7" transform="translate(614.000000, 383.000000)">
                <g id="编组-22" transform="translate(4.000000, 4.000000)">
                    <path d="M27.4402675,19.071965 L30.2522675,19.071965 C30.2412675,26.252965 24.3102675,31.218965 17.1262675,31.259965 C9.88541346,31.2396401 4.02059245,25.3748191 4.00001978,18.133965 C3.95926752,10.943965 9.01126752,5.09896501 16.1892675,5.00796501 L16.1892675,7.82096501 M18.0642675,5.00796501 C17.5484831,5.01337767 17.1316802,5.43018055 17.1262675,5.94596501 L17.1262675,17.196965 C17.1322199,17.7123589 17.5488676,18.1285624 18.0642675,18.133965 L29.3152675,18.133965 C29.8304997,18.1285525 30.246855,17.7121972 30.2522675,17.196965 C30.36869,13.9301155 29.1220602,10.7618457 26.8106772,8.45027296 C24.4992941,6.13870026 21.3311266,4.89181054 18.0642675,5.00796501 L18.0642675,5.00796501 Z" id="Shape_14_copy" fill="url(#linearGradient-1)"></path>
                    <path d="M13.0002675,3.00796501 C6.85426752,3.05596501 2.96326752,8.04396501 3.00026752,14.007965 C3.00853023,20.0796714 7.92856109,24.9997023 14.0002675,25.007965 C20.1502675,24.972965 25.0242675,20.969965 25.0002675,15.007965 L28.0002675,15.007965 C27.9882675,22.667965 21.6622675,27.963965 14.0002675,28.007965 C6.27740014,27.9859937 0.0222388219,21.7308324 1.32160949e-12,14.007965 C-0.0437324846,6.33896501 5.34426752,0.107965008 13.0002675,0.00796500794 L13.0002675,3.00796501 L13.0002675,3.00796501 Z" id="路径" fill="#EA5404"></path>
                    <path d="M15.0002675,0.00796500794 C14.4504663,0.0139151733 14.0062177,0.458163758 14.0002675,1.00796501 L14.0002675,13.007965 C14.0062177,13.5577663 14.4504663,14.0020148 15.0002675,14.007965 L27.0002675,14.007965 C27.5500688,14.0020148 27.9943174,13.5577663 28.0002675,13.007965 C28.1243293,9.52359758 26.7945713,6.14442336 24.3291902,3.67904229 C21.8638092,1.21366121 18.4846349,-0.116096798 15.0002675,0.00796500794 L15.0002675,0.00796500794 Z M17.0002675,11.007965 L17.0002675,4.00796501 C20.822025,4.11272916 23.8955034,7.18620748 24.0002675,11.007965 L17.0002675,11.007965 L17.0002675,11.007965 Z" id="形状" fill="#EA5404"></path>
                </g>
            </g>
        </g>
    </g>
</svg>