<?xml version="1.0" standalone="no"?><!DOCTYPE svg PUBLIC "-//W3C//DTD SVG 1.1//EN" "http://www.w3.org/Graphics/SVG/1.1/DTD/svg11.dtd"><svg t="1582857458594" class="icon" viewBox="0 0 1137 1024" version="1.1" xmlns="http://www.w3.org/2000/svg" p-id="6399" xmlns:xlink="http://www.w3.org/1999/xlink" width="222.0703125" height="200"><defs><style type="text/css"></style></defs><path d="M844.908614 0.006258c53.133898 0 102.17182 13.65325 147.05688 40.959749a297.92529 297.92529 0 0 1 106.495349 110.932656c26.168729 46.762381 39.253093 97.848291 39.309982 153.143953 0 39.76509-7.39551 78.335521-21.902089 115.82507a301.736823 301.736823 0 0 1-63.94272 99.896278L568.942301 1024 85.731032 520.763964A301.623046 301.623046 0 0 1 21.902088 420.867686 316.698509 316.698509 0 0 1 0 305.042616c0-55.295662 13.084364-106.381572 39.253093-153.087065A297.356405 297.356405 0 0 1 145.86222 40.909119 278.184967 278.184967 0 0 1 292.805322 0.006258c38.399765 0 75.434206 7.566176 111.160209 22.641639 35.669115 15.132352 67.697364 37.375772 95.857192 66.787148l69.005801 71.850227 69.0058-71.850227a286.604471 286.604471 0 0 1 95.914081-66.559594A282.224053 282.224053 0 0 1 844.851726 0.006258h0.056888z" p-id="6400"></path></svg>