<?xml version="1.0" standalone="no"?><!DOCTYPE svg PUBLIC "-//W3C//DTD SVG 1.1//EN" "http://www.w3.org/Graphics/SVG/1.1/DTD/svg11.dtd"><svg t="1585472935517" class="icon" viewBox="0 0 1024 1024" version="1.1" xmlns="http://www.w3.org/2000/svg" p-id="3132" xmlns:xlink="http://www.w3.org/1999/xlink" width="200" height="200"><defs><style type="text/css"></style></defs><path d="M509.551304 0.178087C365.83513 0.178087 257.424696 116.646957 257.424696 271.137391v95.276522H249.321739C173.723826 366.413913 112.194783 430.792348 112.194783 509.773913v366.32487c0 78.981565 61.484522 143.36 137.037913 143.36h522.685217c75.553391 0 136.993391-64.378435 136.993391-143.36V509.773913c0-79.026087-61.44-143.36-136.993391-143.36h-4.452174c-1.246609-0.445217-2.493217-0.578783-3.739826-0.801391V271.181913c0.044522-154.490435-109.256348-271.003826-254.21913-271.003826z m0 42.473739c123.102609 0 212.591304 96.122435 212.591305 228.574609V365.078261h-422.956522V271.226435C299.186087 138.774261 387.606261 42.651826 509.506783 42.651826z m357.776696 467.166609v366.324869c0 55.607652-42.785391 100.841739-95.276522 100.841739H249.232696c-52.535652 0-95.276522-45.234087-95.276522-100.841739V509.773913c0-55.607652 42.74087-100.841739 95.276522-100.841739h49.864347v-1.424696h422.956522v1.424696h49.864348c52.535652 0 95.365565 45.234087 95.365565 100.841739z" p-id="3133"></path><path d="M506.034087 566.761739c-33.391304 0-60.460522 28.493913-60.460522 63.577044 0 23.507478 12.198957 44.076522 30.230261 55.028869v103.869218c0 17.497043 13.534609 31.788522 30.274783 31.788521 16.65113 0 30.230261-14.246957 30.230261-31.788521v-103.824696c18.031304-10.99687 30.185739-31.521391 30.185739-55.02887 0-35.172174-27.113739-63.621565-60.460522-63.621565z" p-id="3134"></path></svg>