<?xml version="1.0" standalone="no"?><!DOCTYPE svg PUBLIC "-//W3C//DTD SVG 1.1//EN" "http://www.w3.org/Graphics/SVG/1.1/DTD/svg11.dtd"><svg class="icon" width="200px" height="200.00px" viewBox="0 0 1024 1024" version="1.1" xmlns="http://www.w3.org/2000/svg"><path d="M518.19308808 851.73511706l-28.36788227-32.78443879c-2.83112598-3.28410613-70.5516593-81.64967314-139.29139802-180.51259221-40.76821404-58.71755274-73.38278528-112.33907871-96.82450834-159.50563745C222.11393357 415.68509432 206.76923077 364.38509164 206.76923077 322.14469208c0-43.14635987 8.26688785-84.99040177 24.51755095-124.45629787A318.44504972 318.44504972 0 0 1 297.93148718 96.10759421a310.29140691 310.29140691 0 0 1 98.97616411-68.51324862A302.87385686 302.87385686 0 0 1 518.19308808 2.39732442c42.070532 0 82.78212353 8.49337793 121.22881426 25.14039867a309.21557904 309.21557904 0 0 1 98.9761641 68.51324859 319.52087759 319.52087759 0 0 1 66.70132799 101.63742253c16.2506631 39.46589609 24.51755094 81.30993802 24.51755094 124.45629787 0 42.24039955-15.40132531 93.54040225-46.88344615 156.78775653-23.55496812 47.16655875-56.11291683 100.78808473-96.82450836 159.50563745-68.79636121 98.86291907-136.46027202 177.22848606-139.29139799 180.51259221L518.19308808 851.73511706z m0-771.36858328c-129.77881473 0-235.49305864 108.5453699-235.49305865 241.7781583 0 31.53874336 16.8168883 108.5453699 129.32583457 270.37253067a2324.24118083 2324.24118083 0 0 0 106.16722408 140.42384838 2388.67760802 2388.67760802 0 0 0 106.16722408-140.42384838c112.50894626-161.82716076 129.32583456-238.83378728 129.32583456-270.37253067 0-133.2327884-105.71424392-241.77815831-235.49305864-241.7781583z"  /><path d="M518.47620067 466.1357592c-77.96920936 0-141.3298087-65.85199019-141.32980869-146.93543812C377.14639198 238.11687314 440.5069913 172.26488294 518.47620067 172.26488294c78.02583187 0 141.38643122 65.85199019 141.38643122 146.93543814 0 81.08344793-63.41722185 146.99206066-141.38643122 146.99206063z m0-212.78742833c-34.87947202 0-63.36059933 29.6135777-63.36059933 65.85199019 0 36.29503502 28.48112732 65.90861273 63.41722185 65.90861272 34.87947202 0 63.30397682-29.6135777 63.30397681-65.90861272 0-36.23841248-28.42450479-65.85199019-63.36059933-65.85199019zM518.07984304 1021.60267558c-122.41788718 0-238.2675621-17.94933869-325.86259978-50.56390993-45.07152552-16.76026578-81.02682542-36.80463768-106.84669431-59.62351303C45.28180514 876.08280044 36.90167225 840.18412309 36.90167225 816.34604237c0-28.48112732 11.77748405-70.77814937 68.06026845-110.35729054 36.46490257-25.76324638 86.23609721-46.9966912 147.95464346-63.36059933l19.25165664 78.59205708c-52.20596298 13.75927225-94.89934272 31.70861092-123.43709252 51.86622788-21.51655744 15.17483524-33.86026667 30.91589565-33.86026668 43.25960491 0 19.81788183 32.10496856 51.58311528 103.73245575 78.25232196 79.44139487 29.6135777 185.83510904 45.92086331 299.58975073 45.92086332 113.81126421 0 220.14835586-16.30728562 299.5331282-45.8642408 71.6841097-26.72582921 103.78907827-58.60430769 103.78907826-78.30894448 0-12.34370925-12.40033177-28.08476968-33.86026666-43.25960491-28.53774984-20.15761695-71.23112954-38.10695562-123.43709254-51.86622788l19.25165664-78.59205708c61.71854626 16.30728562 111.4331184 37.59735295 147.95464347 63.36059933 56.28278438 39.63576366 68.06026845 81.87616321 68.06026846 110.41391305 0 23.78145821-8.38013289 59.68013557-48.52549923 95.01258774-25.87649142 22.81887536-61.83179131 42.80662476-106.84669432 59.62351303-87.76490524 32.61457125-203.50133512 50.56390993-326.03246732 50.56390993z"  /></svg>
