<?xml version="1.0" standalone="no"?><!DOCTYPE svg PUBLIC "-//W3C//DTD SVG 1.1//EN" "http://www.w3.org/Graphics/SVG/1.1/DTD/svg11.dtd"><svg class="icon" width="200px" height="200.00px" viewBox="0 0 1024 1024" version="1.1" xmlns="http://www.w3.org/2000/svg"><path d="M465.408 837.8368a46.592 46.592 0 1 0 93.184 0 46.592 46.592 0 0 0-93.184 0z"  /><path d="M512 1024C229.6832 1024 0 794.3168 0 512S229.6832 0 512 0s512 229.6832 512 512-229.6832 512-512 512z m0-950.528c-241.8176 0-438.528 196.7104-438.528 438.528 0 241.7664 196.7104 438.528 438.528 438.528 241.7664 0 438.528-196.7616 438.528-438.528 0-241.8176-196.7616-438.528-438.528-438.528z"  /><path d="M512 698.1632a36.864 36.864 0 0 1-37.2224-36.5056v-61.7984c0-59.7504 46.5408-105.4208 87.6544-145.7152 30.1056-29.5936 61.2864-60.1088 61.2864-84.48 0-60.928-50.176-110.4384-111.7184-110.4384-62.6176 0-111.7184 47.4112-111.7184 107.9808a36.864 36.864 0 0 1-37.2224 36.5056 36.864 36.864 0 0 1-37.2224-36.5056c0-99.84 83.456-181.0432 186.1632-181.0432 102.656 0 186.1632 82.3296 186.1632 183.5008 0 54.6816-42.24 96.1024-83.0976 136.192-32.4096 31.744-65.8432 64.512-65.8432 94.0032v61.7472a36.9152 36.9152 0 0 1-37.2224 36.5568z"  /></svg>
