<?xml version="1.0" standalone="no"?><!DOCTYPE svg PUBLIC "-//W3C//DTD SVG 1.1//EN" "http://www.w3.org/Graphics/SVG/1.1/DTD/svg11.dtd"><svg class="icon" width="200px" height="200.00px" viewBox="0 0 1024 1024" version="1.1" xmlns="http://www.w3.org/2000/svg"><path d="M985.18447893 289.11805088l-556.63268696 548.48129446a35.51226813 35.51226813 0 0 1-25.71795937 10.86852335 35.51226813 35.51226813 0 0 1-25.71795927-10.86852335l-10.99490152-10.86852332-306.78302821-304.06589736a34.50124272 34.50124272 0 0 1 0-50.67764957l75.32139436-74.24717983a35.51226813 35.51226813 0 0 1 25.71795933-10.86852339c9.79430882 0 18.38802498 3.66496717 25.71795933 10.86852339l216.73857598 215.41160517 455.59333338-448.89528987a35.51226813 35.51226813 0 0 1 25.7179593-10.86852332c9.79430882 0 18.32483587 3.60177806 25.7179593 10.86852332l75.32139435 74.18399074a34.50124272 34.50124272 0 0 1 0 50.67764958z" /></svg>
