<?xml version="1.0" standalone="no"?><!DOCTYPE svg PUBLIC "-//W3C//DTD SVG 1.1//EN" "http://www.w3.org/Graphics/SVG/1.1/DTD/svg11.dtd"><svg t="1582858302412" class="icon" viewBox="0 0 1792 1024" version="1.1" xmlns="http://www.w3.org/2000/svg" p-id="8897" xmlns:xlink="http://www.w3.org/1999/xlink" width="350" height="200"><defs><style type="text/css"></style></defs><path d="M1780.608 94.464a63.616 63.616 0 1 0-112.64-59.648 878.848 878.848 0 0 1-316.16 336.512A872.576 872.576 0 0 1 894.72 500.096c-161.92 0-320-44.544-457.216-128.768A879.872 879.872 0 0 1 121.472 34.56 64 64 0 0 0 35.456 8.448 64 64 0 0 0 8.96 94.464c54.272 102.4 125.824 194.304 211.2 271.872L110.72 639.488a63.616 63.616 0 1 0 118.144 47.36l95.232-237.568a992 992 0 0 0 242.432 123.136l-51.456 273.92a63.36 63.36 0 0 0 62.72 75.392A63.616 63.616 0 0 0 640 869.888l49.28-263.552a1010.944 1010.944 0 0 0 410.496 0l49.536 263.552a63.616 63.616 0 1 0 125.056-23.552l-51.2-273.92a1003.52 1003.52 0 0 0 242.304-123.136l95.104 237.568a63.616 63.616 0 1 0 118.144-47.36l-109.44-273.152a1001.216 1001.216 0 0 0 211.2-271.872z" p-id="8898"></path></svg>