<?xml version="1.0" standalone="no"?><!DOCTYPE svg PUBLIC "-//W3C//DTD SVG 1.1//EN" "http://www.w3.org/Graphics/SVG/1.1/DTD/svg11.dtd"><svg t="1582535232034" class="icon" viewBox="0 0 1068 1024" version="1.1" xmlns="http://www.w3.org/2000/svg" p-id="6195" xmlns:xlink="http://www.w3.org/1999/xlink" width="208.59375" height="200"><defs><style type="text/css"></style></defs><path d="M334.242478 264.519889L324.982697 269.416888a25.731507 25.731507 0 0 0-13.043826 26.710907c1.780727 5.386699 3.784045 10.817917 6.009954 16.160098s4.62989 10.550808 7.122908 15.625881c6.188027 8.636526 17.807271 12.95479 28.135489 9.704963l9.927553-3.116273A48.391259 48.391259 0 0 1 422.477506 393.622604l-3.16079 9.972072a25.820543 25.820543 0 0 0 9.660444 28.135488c5.075072 2.537536 10.283699 4.941518 15.670399 7.122909 5.342181 2.225909 10.728881 4.229227 16.11558 6.009954a25.731507 25.731507 0 0 0 26.710907-12.999308l4.852481-9.215263a48.435777 48.435777 0 0 1 83.738692-0.044518l4.852481 9.259781a25.731507 25.731507 0 0 0 26.710907 12.999308 243.959614 243.959614 0 0 0 31.830497-13.132863 25.820543 25.820543 0 0 0 9.660445-28.135488l-3.116273-9.883036a48.524814 48.524814 0 0 1 59.209177-59.298212l9.927553 3.116272a25.820543 25.820543 0 0 0 28.135488-9.660444 240.220087 240.220087 0 0 0 13.177381-31.785979 25.686989 25.686989 0 0 0-13.043826-26.755425l-9.170745-4.807963a48.435777 48.435777 0 0 1 0-83.783211l9.170745-4.896999a25.686989 25.686989 0 0 0 13.043826-26.710907 255.04464 255.04464 0 0 0-13.132862-31.74146 25.776025 25.776025 0 0 0-28.135489-9.704963l-9.927553 3.116272a48.524814 48.524814 0 0 1-59.253695-59.209176l3.116273-9.927554a25.776025 25.776025 0 0 0-9.704963-28.135488 220.988234 220.988234 0 0 0-31.785979-13.132862 25.64247 25.64247 0 0 0-26.710907 12.999308l-4.807963 9.215262a48.391259 48.391259 0 0 1-83.78321 0L487.474046 13.437367a25.64247 25.64247 0 0 0-26.710907-12.999308 236.391523 236.391523 0 0 0-31.830497 13.088344 25.820543 25.820543 0 0 0-9.660445 28.180007l3.116273 9.927553a48.391259 48.391259 0 0 1-59.253695 59.209177l-9.927553-3.116273a25.731507 25.731507 0 0 0-28.135489 9.704963 223.926434 223.926434 0 0 0-13.132862 31.785979 25.820543 25.820543 0 0 0 13.043826 26.710906l9.170745 4.897a48.435777 48.435777 0 0 1 0 83.694174zM534.218132 104.699631a117.973171 117.973171 0 1 1 0 235.99086 117.973171 117.973171 0 0 1 0-235.99086zM1024.496823 690.247222H874.782191v-138.718642c0-34.056406-25.553434-61.746712-56.894231-61.746712H254.109758c-31.340797 0-56.849713 27.690307-56.849713 61.746712v138.718642H43.894923c-24.262407 0-43.894923 21.368725-43.894923 47.63445v238.43936C0 1002.631275 19.632516 1024 43.894923 1024h325.516915c24.262407 0 43.939441-21.368725 43.939442-47.678968v-238.394842c0-26.310243-19.677035-47.678968-43.939442-47.678968H223.169625v-138.718642c0-18.56408 13.889671-33.611224 30.940133-33.611224h563.733684c17.050462 0 30.984652 15.047144 30.984652 33.611224v138.718642h-149.803668c-24.262407 0-43.939441 21.368725-43.939441 47.63445v238.43936c0 26.310243 19.677035 47.678968 43.939441 47.678968h325.472397c24.262407 0 43.939441-21.368725 43.939441-47.678968v-238.394842c0-26.310243-19.677035-47.678968-43.939441-47.678968z" p-id="6196"></path></svg>