<?xml version="1.0" standalone="no"?><!DOCTYPE svg PUBLIC "-//W3C//DTD SVG 1.1//EN" "http://www.w3.org/Graphics/SVG/1.1/DTD/svg11.dtd"><svg class="icon" width="200px" height="200.00px" viewBox="0 0 1024 1024" version="1.1" xmlns="http://www.w3.org/2000/svg"><path d="M505.766957 975.248696c77.57913 0 160.456348-205.690435 160.456347-465.029566 0-259.361391-82.877217-463.248696-160.478608-463.248695-77.57913 0-160.456348 205.690435-160.456348 465.029565s82.877217 463.248696 160.456348 463.248696z m0 48.306087c-114.643478 0-208.094609-228.953043-208.094609-511.554783S391.123478 0.445217 505.744696 0.445217c114.621217 0 208.072348 228.953043 208.072347 511.554783s-93.45113 511.554783-208.072347 511.554783z"  /><path d="M108.989217 744.514783c38.800696 67.984696 255.688348 37.576348 476.115479-91.202783 222.163478-130.582261 354.437565-305.864348 317.395478-373.826783C863.721739 211.478261 646.811826 241.90887 426.406957 370.688 204.221217 499.489391 70.210783 676.552348 108.989217 744.514783zM68.429913 767.777391c-58.189913-100.173913 91.714783-296.915478 333.289739-438.227478C643.294609 188.260174 884.869565 156.048696 943.059478 256.222609c58.189913 100.173913-91.692522 296.915478-333.267478 438.227478C368.194783 835.739826 124.861217 869.732174 68.429913 767.777391z"  /><path d="M108.989217 279.485217c-38.778435 67.962435 95.232 243.244522 315.659131 373.826783 220.40487 128.77913 437.292522 159.165217 476.093217 91.202783 38.800696-67.962435-95.232-243.244522-315.65913-373.826783-220.382609-128.77913-437.292522-159.165217-476.093218-91.202783zM68.429913 256.222609c58.189913-100.173913 299.78713-67.962435 541.362087 73.327304C851.366957 470.861913 999.490783 667.603478 943.059478 767.777391c-58.189913 100.173913-299.76487 67.962435-541.339826-73.327304C160.122435 553.138087 10.24 356.396522 68.429913 256.222609z"  /><path d="M445.796174 512c0 33.992348 26.445913 60.816696 59.948522 60.816696 33.502609 0 59.948522-26.824348 59.948521-60.816696 0-33.992348-26.445913-60.816696-59.948521-60.816696-33.502609 0-59.948522 26.824348-59.948522 60.816696z"  /></svg>
