<?xml version="1.0" standalone="no"?><!DOCTYPE svg PUBLIC "-//W3C//DTD SVG 1.1//EN" "http://www.w3.org/Graphics/SVG/1.1/DTD/svg11.dtd"><svg t="1579075361929" class="icon" viewBox="0 0 2074 1024" version="1.1" xmlns="http://www.w3.org/2000/svg" p-id="1803" xmlns:xlink="http://www.w3.org/1999/xlink" width="405.078125" height="200"><defs><style type="text/css"></style></defs><path d="M1894.33129 231.729074l56.854458-42.034576H1611.810436V134.726206H2035.982422v54.968292h-0.511959v3.772334L1983.708655 231.729074h44.594374c7.625503 0 13.822909 6.844091 13.822908 15.304897V519.127016H1976.163987v-68.467858h-119.367418v68.467858h-65.827224v-68.467858h-113.223904v68.467858H1611.864327V247.033971c0-8.460806 6.197405-15.304897 13.822908-15.304897h119.044076l-25.166856-23.334579h64.021893l22.499277 23.334579h88.27261zM1600.089256 592.795306h-4.122622c-11.047549 0-21.502302-5.658501-28.265558-15.304897l-4.984869-7.140489c-1.185591 11.182275-9.808068 19.858643-20.289767 19.858642h-93.526932c-1.320317 0-2.398126-1.185591-2.398127-2.640633v-49.606189c0-1.455043 1.07781-2.640634 2.398127-2.640634h36.807199c1.293372 0 2.371181-1.158645 2.371182-2.613688v-187.458043c0-1.455043-1.07781-2.613688-2.371182-2.613688h-55.237744c-1.293372 0-2.371181-1.185591-2.371181-2.640634v-49.606189c0-1.455043 1.07781-2.613688 2.398126-2.613688h105.005605c15.089335 0 27.34942 13.472621 27.34942 30.070889v219.954003H2074.78357V592.795306H1600.116201z m376.101676-225.666395h-119.367418v49.309791h119.367418v-49.309791z m0-34.220456v-46.238034h-119.367418v46.211088h119.367418z m-185.194642-46.238034h-113.223904v46.211088h113.223904V286.697366z m-113.223904 80.45849v49.309791h113.223904v-49.309791h-113.223904z m-1220.08052 170.617267v-190.098676H241.402416V292.625319H592.795306v55.049128h-63.024919v190.098676h0.538904v14.173197c0 22.580112-16.086309 40.875931-35.918006 40.875931h-188.374181v-55.049128h151.674762zM75.311949 416.7351H0l103.011657-122.573902h86.036155l-81.644081 96.598689H147.390469V592.795306H75.311949v-176.060206z m1211.404152 448.234087h17.244955l85.254743 129.687445v-129.687445h26.89135V1023.919164H1383.368681l-86.090045-127.828224V1023.919164h-27.753599V864.942241h17.244955z m-343.201536 85.335578v57.932269h44.244086c25.65187 0 38.531695-10.158356 38.531694-30.528958-1.69755-17.729969-15.385733-26.864405-41.037602-27.403311h-41.765124z m0-68.898981v51.680972H981.884588c24.520169-0.538905 37.103597-9.646396 37.669447-27.40331-0.56585-16.167145-13.149278-24.277662-37.669447-24.277662h-38.396969zM920.907507 1023.919164h-5.119596v-159.731389h76.255033c34.59769 1.562824 53.594085 14.361814 56.935295 38.370023 0 20.882562-11.694235 33.412099-35.136595 37.561666v0.808357c26.190774 4.688472 40.175355 17.487462 41.84596 38.343079 0 29.774491-19.831697 44.648265-59.441202 44.648264h-75.338895z m-173.82375-159.704444h5.119595v18.107202h-58.552009V1023.919164h-28.53501v-141.597242H605.729021v-18.107202h141.354736z m-283.868116-1.940057V862.247717l127.450991 0.781412v18.026367h-103.820015v50.872615H584.711733v17.244954h-97.892061v56.315554h107.161224v16.436597H458.0691V862.247717l5.119596 0.026946z m389.870694 95.278372h5.119596v15.412678h-84.230824v-15.412678h79.111228z m336.653843 4.499856l-30.070889-72.132411-30.070889 72.132411h60.141778z m50.22593 61.839328h-25.112965l-19.238902-44.594374h-72.752151l-18.376655 44.594374h-30.259505l69.464831-159.704444H1174.812515l70.327079 159.704444h-5.146541z m342.985975 0h-5.146541l-58.956188-75.500566-32.172618 30.097835V1023.919164h-28.561956v-158.976923h28.561956v82.075205l86.925348-82.048259h35.298266l-72.02463 67.363103L1613.076862 1023.919164h-30.124779zM103.011657 134.726206h86.036155l-103.577507 136.612373H0L103.011657 134.726206z m1338.855143 1.050864h87.087019l45.618294 79.865695h-84.985291l-47.693077-79.865695z m-128.582691 212.247665C1362.378339 522.980186 1143.933268 673.631029 985.225798 673.631029c-159.839171 0-297.77186-93.25748-310.05889-238.061206-12.260085-144.803726 47.477515-288.394916 220.843196-321.133384 83.018288-15.68213 141.489461-5.362103 202.520433 49.821751a307.984107 307.984107 0 0 0-23.415415-0.889193c-131.546667 0-238.195932 83.314686-238.195931 186.110781s106.649265 186.137726 238.195931 186.137726 238.195932-83.341631 238.195932-186.137726l-0.026945-1.455043zM890.944399 53.432413C933.194537 20.667 994.225509 0 1062.262242 0 1189.90185 0 1293.371576 72.374918 1293.371576 161.671447s-86.359498 161.671447-213.97216 161.671447c-14.846828 0-29.316422-1.07781-43.381838-2.937031 104.628371-12.879825 166.036576-66.958924 166.036576-131.76223 0-74.422756-103.469726-134.726206-231.109334-134.726205-26.864405 0-52.624056 2.694524-76.60532 7.652448-4.47291 0.943083-7.086598-5.281267-3.395101-8.137463zM261.692182 198.047523V138.875773h308.145778v59.198695H261.692182z" p-id="1804"></path></svg>