<?xml version="1.0" standalone="no"?><!DOCTYPE svg PUBLIC "-//W3C//DTD SVG 1.1//EN" "http://www.w3.org/Graphics/SVG/1.1/DTD/svg11.dtd"><svg class="icon" width="200px" height="199.42px" viewBox="0 0 1027 1024" version="1.1" xmlns="http://www.w3.org/2000/svg"><path d="M936.3456 947.79733333h-278.2208c-37.376 0-37.376 23.7056-37.376 31.488 0 7.8848 0 31.8976 37.376 31.8976h278.2208c37.376 0 37.376-24.0128 37.376-31.8976 0-7.7824 0-31.488-37.376-31.488z m-110.8992-300.032c0.8192 0.5632 2.4576 0.5632 4.9664 0h7.3216c14.6944 0 23.296-17.5616 23.3984-25.9584 0.1024-8.7552-8.0896-20.2752-22.1696-31.4368-42.24-31.3344-103.168-70.5536-147.3536-86.7328l-23.1424-8.448 18.7904-15.4624c60.5184-49.7152 95.232-121.8048 95.232-197.7856 0-143.7184-122.112-260.608-272.128-260.608-150.016 0-272.0768 116.8896-272.0768 260.608 0 75.9808 34.6624 148.0704 95.1296 197.7856l18.7392 15.4112-23.04 8.448c-194.56 71.5776-329.1648 258.3552-329.216 457.728 0 18.8416 7.2192 35.84 25.344 35.84 13.568 0 25.2416 0 28.416-27.3408 30.208-258.816 201.7792-426.8032 445.3888-426.8032l23.1424 0.2048c120.6272 0 197.6832 35.328 290.0992 96.4096l9.8816 6.656 3.2768 1.536z m-109.9776-365.4144c0 88.832-81.92 187.8528-199.5264 187.8528l-5.5808-0.1024C376.1152 469.84533333 305.8688 374.92053333 305.8688 281.22453333c0-96.7168 78.336-201.1136 204.8-201.1136 126.464 0 204.8 104.96 204.8 202.24z m-94.72 496.8448c0 29.0304 23.3984 33.3824 37.376 33.3824h278.2208c13.9776 0 37.376-4.352 37.376-33.3824 0-19.9168-12.544-30.0032-37.376-30.0032h-278.2208c-24.832 0-37.376 10.0864-37.376 30.0032z"  /></svg>
