<?xml version="1.0" standalone="no"?><!DOCTYPE svg PUBLIC "-//W3C//DTD SVG 1.1//EN" "http://www.w3.org/Graphics/SVG/1.1/DTD/svg11.dtd"><svg t="1582858293519" class="icon" viewBox="0 0 1303 1024" version="1.1" xmlns="http://www.w3.org/2000/svg" p-id="8768" xmlns:xlink="http://www.w3.org/1999/xlink" width="254.4921875" height="200"><defs><style type="text/css"></style></defs><path d="M654.429091 809.332364a227.328 227.328 0 1 1 0-454.749091 227.328 227.328 0 0 1 0 454.749091z m0-127.348364a100.072727 100.072727 0 1 0 0-200.145455 100.072727 100.072727 0 0 0 0 200.145455z" p-id="8769"></path><path d="M659.083636 874.216727c159.185455 0 318.836364-93.649455 478.766546-286.72-139.636364-193.163636-298.356364-286.72-478.766546-286.72-180.596364 0-345.181091 93.742545-495.709091 286.72 170.821818 192.977455 336.244364 286.72 495.709091 286.72z m477.090909-486.4c47.010909 47.848727 91.694545 103.610182 134.05091 167.191273l25.413818 38.167273-28.206546 36.305454c-191.767273 245.76-394.519273 372.084364-608.349091 372.084364-213.178182 0-421.701818-125.579636-626.129454-370.501818l-31.650909-37.888 28.858182-40.029091c57.250909-79.406545 117.387636-146.618182 180.596363-201.355637l-107.985454-114.967272a45.428364 45.428364 0 1 1 66.373818-62.184728l113.570909 121.018182a683.101091 683.101091 0 0 1 205.544727-98.862545L433.245091 66.746182a45.428364 45.428364 0 1 1 83.781818-35.374546l62.277818 147.083637a638.882909 638.882909 0 0 1 215.970909 9.867636L868.072727 27.927273a45.521455 45.521455 0 0 1 82.850909 37.701818l-67.956363 149.410909a682.170182 682.170182 0 0 1 186.181818 111.150545l132.933818-132.933818a45.521455 45.521455 0 0 1 64.325818 64.232728l-130.234182 130.327272z" p-id="8770"></path></svg>