<?xml version="1.0" standalone="no"?><!DOCTYPE svg PUBLIC "-//W3C//DTD SVG 1.1//EN" "http://www.w3.org/Graphics/SVG/1.1/DTD/svg11.dtd"><svg class="icon" width="200px" height="200.00px" viewBox="0 0 1024 1024" version="1.1" xmlns="http://www.w3.org/2000/svg"><path d="M0 0h1024v1024H0z" /><path d="M856.032 220.48a8784.736 8784.736 0 0 0-78.304-72.064l-4.288-3.872A2547.584 2547.584 0 0 0 711.264 89.6a390.976 390.976 0 0 0-21.664-17.312c-3.52-2.56-6.4-4.352-9.184-5.696a23.904 23.904 0 0 0-11.52-2.624 22.848 22.848 0 0 0-22.496 22.912v201.504h201.6l-22.4-22.4V937.6l22.4-22.4H265.6c-37.184 0-67.2-29.92-67.2-67.008V86.912l-22.4 22.4h403.2a22.4 22.4 0 1 0 0-44.8H153.6v783.68A111.808 111.808 0 0 0 265.6 960h604.8V243.616h-201.6l22.4 22.4V86.88a21.952 21.952 0 0 1-21.44 21.888 17.312 17.312 0 0 1-8.544-1.696c-0.224-0.096 0.704 0.512 2.176 1.568 4.16 2.976 10.624 8.16 18.944 15.2a2511.072 2511.072 0 0 1 65.28 57.728 7799.744 7799.744 0 0 1 85.056 78.4 22.4 22.4 0 0 0 30.656-32.704 4810.24 4810.24 0 0 0-7.296-6.784zM153.6 467.52H64v380.576h896V467.488H198.4v-0.512H153.6v0.512z m92.576 218.624V780.8H201.888v-254.784h97.472c28.48 0 51.072 7.392 67.84 22.208 16.736 14.816 25.088 34.432 25.088 58.816 0 24.96-8.192 44.384-24.576 58.24-16.384 13.888-39.36 20.832-68.864 20.832H246.176z m0-35.52h53.184c15.776 0 27.776-3.712 36.064-11.104 8.288-7.424 12.416-18.112 12.416-32.128 0-13.76-4.16-24.736-12.576-32.96s-19.968-12.48-34.656-12.704H246.176v88.896z m184.8 130.208v-254.784h75.264c22.496 0 42.496 4.992 59.936 15.04 17.44 10.016 30.944 24.256 40.512 42.688 9.568 18.432 14.336 39.552 14.336 63.36v12.8c0 24.128-4.8 45.344-14.432 63.68-9.6 18.304-23.36 32.416-41.12 42.336-17.792 9.92-38.176 14.88-61.184 14.88h-73.312z m44.288-219.104v183.744h28.864c23.2 0 41.024-7.264 53.44-21.76 12.448-14.528 18.784-35.392 19.008-62.592v-14.176c0-27.648-6.016-48.768-18.016-63.36-12.032-14.56-29.44-21.856-52.32-21.856h-30.976z m336.672 111.136H709.44V780.8h-44.288v-254.784h161.888v35.68h-117.6v75.776h102.528v35.36z" fill="#D24626" /></svg>
