<?xml version="1.0" standalone="no"?><!DOCTYPE svg PUBLIC "-//W3C//DTD SVG 1.1//EN" "http://www.w3.org/Graphics/SVG/1.1/DTD/svg11.dtd"><svg class="icon" width="200px" height="200.00px" viewBox="0 0 1024 1024" version="1.1" xmlns="http://www.w3.org/2000/svg"><path d="M0 0h1024v1024H0z"/><path d="M533.056 64h57.44v93.312c108.288 0.64 216.704-1.152 324.992 0a35.424 35.424 0 0 1 39.2 40.16c1.792 193.6 0 387.36 1.056 581.12-1.056 20.96 1.984 44.128-9.728 62.88-14.784 10.496-33.984 9.536-51.392 10.496-101.28-0.544-202.56 0-304 0v103.168H527.68C373.12 926.72 218.528 900.416 64 872.608V147.136C220.32 119.456 376.64 91.264 533.056 64z" fill="#D24625" /><path d="M590.496 188.448h334.208v632.288H590.496v-82.944h243.104v-41.408h-243.104v-52.416h243.104v-40.896h-243.008v-60.896c40.16 12.672 85.856 12.352 121.728-12.288 38.784-23.584 59.008-68.448 62.4-113.216h-133.376c0-45.088 0.512-90.144-0.832-135.136-16.672 3.264-33.248 6.816-49.792 10.496l-0.224-103.584z" fill="#FFFFFF" /><path d="M661.568 259.616a144.256 144.256 0 0 1 133.376 136.32c-44.48 0.512-88.928 0-133.472 0 0.096-45.632 0.096-90.816 0.096-136.32z" fill="#D24625" /><path d="M226.496 337.824c55.04 2.752 121.6-22.208 167.744 19.936 43.616 54.304 32.096 154.016-32.608 186.4-22.944 12.064-49.376 10.496-74.336 9.536v121.6l-60.288-5.12a13006.08 13006.08 0 0 1-0.512-332.352z" fill="#FFFFFF" /><path d="M286.688 393.92c19.904-0.832 44.64-4.608 58.08 14.592 11.04 21.216 11.552 46.4 1.344 68.032-11.52 20.96-37.632 19.2-57.856 21.696-2.112-34.688-1.92-69.408-1.6-104.32z" fill="#D24625" /></svg>
