<?xml version="1.0" standalone="no"?><!DOCTYPE svg PUBLIC "-//W3C//DTD SVG 1.1//EN" "http://www.w3.org/Graphics/SVG/1.1/DTD/svg11.dtd"><svg class="icon" width="200px" height="200.00px" viewBox="0 0 1024 1024" version="1.1" xmlns="http://www.w3.org/2000/svg"><path d="M750.9504 614.2976c-68.3008 68.2496-68.3008 136.4992-136.4992 136.4992-68.2496 0-136.6016-68.2496-204.8-136.4992-68.1984-68.3008-136.6016-136.4992-136.6016-204.7488 0-68.1984 68.3008-68.2496 136.6016-136.5504C477.952 204.6976 273.0496 0 204.8 0 136.4992 0 0 204.8 0 204.8c0 136.4992 155.2896 402.944 288.0512 535.6544C420.7616 873.2672 682.5472 1024 819.2 1024c0 0 204.8-136.4992 204.8-204.8 0-68.352-204.8-273.152-273.0496-204.9024z"  /></svg>
