<?xml version="1.0" standalone="no"?><!DOCTYPE svg PUBLIC "-//W3C//DTD SVG 1.1//EN" "http://www.w3.org/Graphics/SVG/1.1/DTD/svg11.dtd"><svg class="icon" width="200px" height="33.06px" viewBox="0 0 6194 1024" version="1.1" xmlns="http://www.w3.org/2000/svg"><path d="M4354.82403371-6.06333325h-73.4782146a11.66714942 11.66714942 0 0 0-11.54302978 11.66714941v335.12023617c-38.3526495-43.68974978-291.43048637-331.39667739-298.50524781-338.09908265a29.54022831 29.54022831 0 0 0-21.96899384-8.68830293h-72.60938405a11.66714942 11.66714942 0 0 0-11.66714803 11.66714941V468.19385977a11.54302977 11.54302977 0 0 0 11.66714803 11.54303116h73.35409637a11.54302977 11.54302977 0 0 0 11.6671494-11.54303116V130.59125155c27.67844892 31.4020077 294.40933286 333.63081292 300.9876185 340.58145471a29.16787215 29.16787215 0 0 0 21.96899386 8.56418467h70.12701195a11.54302977 11.54302977 0 0 0 11.66714942-11.54303116V5.60381616a11.66714942 11.66714942 0 0 0-11.66714942-11.66714941m-592.91458067 0H3680.48764781a11.66714942 11.66714942 0 0 0-11.54302978 11.66714941V468.19385977a11.54302977 11.54302977 0 0 0 11.54302978 11.54303116h81.91827964a11.54302977 11.54302977 0 0 0 11.66714942-11.54303116V5.60381616a11.66714942 11.66714942 0 0 0-11.66714942-11.66714941m-275.91565991 240.66597653a11.54302977 11.54302977 0 0 1-11.54303115 11.54303116h-248.237211V79.45438693h248.237211a11.54302977 11.54302977 0 0 1 11.54303115 11.66714802z m-55.23277957-240.66597653h-299.00172221a11.66714942 11.66714942 0 0 0-11.66714803 11.66714941V468.19385977a11.54302977 11.54302977 0 0 0 11.66714803 11.54303116h82.78711021a11.41891151 11.41891151 0 0 0 11.54303116-11.54303116v-136.53046652h204.67158084c91.72364966 0 166.07069485-54.23983073 166.07069485-135.90987249V141.76192654c0-81.67004314-74.47116345-147.8252598-166.07069485-147.82525979m2750.59242414 0h-73.47821461a11.66714942 11.66714942 0 0 0-11.66714942 11.66714941v335.12023617c-38.22853123-43.44151189-291.9269608-331.14844086-297.88465375-337.85084613a29.78846482 29.78846482 0 0 0-21.96899384-8.68830155H5703.62092377a11.54302977 11.54302977 0 0 0-11.54303115 11.66714803V468.19385977a11.41891151 11.41891151 0 0 0 11.54303115 11.54303116h73.47821463a11.41891151 11.41891151 0 0 0 11.54302977-11.54303116V130.59125155c27.80256717 31.4020077 294.40933286 333.63081292 300.98761987 340.58145471a29.54022831 29.54022831 0 0 0 21.96899247 8.56418467h70.2511316a11.41891151 11.41891151 0 0 0 11.54302977-11.54303116V5.60381616a11.54302977 11.54302977 0 0 0-11.54302977-11.66714941m-1402.54024637-6.57828564h-168.92542307c-91.72364966 0-166.07069485 66.15521667-166.07069347 147.70114153V339.11050945c0 81.67004314 74.47116345 147.70114154 166.07069347 147.70114155h169.29777922c91.72364966 0 166.07069485-66.0310984 166.07069484-147.70114155V208.04126286h-256.80139567V277.05120773a11.66714942 11.66714942 0 0 0 11.54302977 11.66714803h140.62638011v94.33014138a11.54302977 11.54302977 0 0 1-11.54302978 11.54302977H4560.4885634a11.54302977 11.54302977 0 0 1-11.66714942-11.54302977V90.87329844a11.66714942 11.66714942 0 0 1 11.66714942-11.54302977h269.08913776a11.54302977 11.54302977 0 0 1 11.54302978 11.54302977v55.85337225a11.66714942 11.66714942 0 0 0 11.54303115 11.6671494H4934.08556732a11.66714942 11.66714942 0 0 0 11.54302977-11.6671494v-11.79126767c0-81.54592348-74.47116345-147.70114154-166.07069347-147.70114016M2577.19736017 251.48277474a47.66154511 47.66154511 0 0 1-29.91258308 49.64744136c-20.97604502 10.55008096-55.60513571 26.93373798-86.88302517 41.57973388-31.15376981-14.64599589-65.65874225-31.02965155-86.88302378-41.57973388a47.66154511 47.66154511 0 0 1-29.91258308-49.64744136v-22.21723037h233.21886033z m192.01148399-95.69544498h-100.03959642v-42.69680096a12.41186034 12.41186034 0 0 0-12.41186035-12.41186033h-68.1411157a12.41186034 12.41186034 0 0 0-12.41186035 12.41186033v42.69680096h-232.2259115v-42.69680096a12.41186034 12.41186034 0 0 0-12.41186035-12.41186033h-68.01699606a12.41186034 12.41186034 0 0 0-12.41186033 12.41186033v42.69680096h-100.03959645a11.54302977 11.54302977 0 0 0-11.66714941 11.54302979v50.39215367a11.66714942 11.66714942 0 0 0 11.66714941 11.54303115h99.91547819v31.40200634c0 36.49087009 16.75601182 70.99584255 62.05930309 92.84071812 17.00424833 8.31594677 37.98029333 18.49367295 60.44576021 29.16787215a288.32752163 288.32752163 0 0 1-112.32733852 23.7066536h-94.45425824a12.41186034 12.41186034 0 0 0-12.41186034 12.41186034v49.64744275a12.41186034 12.41186034 0 0 0 12.41186034 12.41186035h92.964835a368.38402188 368.38402188 0 0 0 121.13975972-22.21723036c15.63894473-5.83357471 45.30329129-18.86602771 79.18767105-34.50497244 34.00849803 15.63894473 63.6728446 28.67139774 79.31178932 34.50497244a368.38402188 368.38402188 0 0 0 121.13975834 22.21723036h92.96483637a12.41186034 12.41186034 0 0 0 12.41186035-12.41186035v-49.64744275a12.41186034 12.41186034 0 0 0-12.41186035-12.41186034h-94.57837788a288.20340338 288.20340338 0 0 1-111.70674584-23.7066536c22.46546826-10.67420059 43.44151189-20.85192538 60.44576159-29.16787215 44.80681687-21.84487421 62.0593031-56.34984666 62.0593031-92.84071812v-31.40200634h100.03959644a11.54302977 11.54302977 0 0 0 11.54302976-11.54303115v-50.39215367a11.54302977 11.54302977 0 0 0-11.54302976-11.54302979m2644.71925298-148.94232826a24.82372067 24.82372067 0 0 0-21.10016328-13.52892742h-72.48526579a24.82372067 24.82372067 0 0 0-21.10016189 13.40480916L5070.61603385 456.52671175c-7.6953541 14.52187626-1.11706708 23.21017919 12.41186034 23.21017918h72.36114752a18.6177912 18.6177912 0 0 0 19.85897657-12.41186034L5356.08882727 105.14693818l181.58551993 361.80573625a18.6177912 18.6177912 0 0 0 19.85897793 12.41186034h72.36114613c13.52892742 0 19.98309618-8.68830292 12.41186036-23.21017919z m-3469.11503285 89.61363376a21.72075594 21.72075594 0 0 0-19.61074004 10.67420058l-78.07060398 152.04529162a6.95064179 6.95064179 0 0 0 6.70240528 10.79831884h78.44295876a21.84487421 21.84487421 0 0 0 19.73485829-10.79831884l77.94648434-152.04529162a6.95064179 6.95064179 0 0 0-6.7024039-10.67420058zM1284.99855466 407.25162515H828.24208576V41.22585569H1284.99855466z m22.71370478-433.42217147H805.52838098a68.01699605 68.01699605 0 0 0-68.01699607 68.01699469v369.62520861a68.01699605 68.01699605 0 0 0 68.01699607 68.01699606h502.68035286a68.01699605 68.01699605 0 0 0 68.01699606-68.01699606V41.84644837a68.01699605 68.01699605 0 0 0-68.01699606-68.01699469m847.97831521 130.44865393h54.11571247a11.66714942 11.66714942 0 0 0 11.66714942-11.6671494V58.72657982h477.11192126v33.88437839a11.66714942 11.66714942 0 0 0 11.66714803 11.6671494h54.11571248a11.66714942 11.66714942 0 0 0 11.66714941-11.6671494V53.63771604a59.70104929 59.70104929 0 0 0-59.82516893-59.70104929h-205.54041142V-34.11413831a11.66714942 11.66714942 0 0 0-11.66714804-11.54302978h-77.94648434a11.54302977 11.54302977 0 0 0-11.54303113 11.54302978V-5.93921361h-205.6645297a59.70104929 59.70104929 0 0 0-59.82516753 59.57692965v38.8491239a11.66714942 11.66714942 0 0 0 11.66714802 11.6671494M548.4787474 311.92853495H372.35444603V104.15398934h176.12430137z m-282.12159078 0H90.35697352V104.15398934h176.0001831zM576.52955246 28.81399535H372.35444603V-32.12824066a11.54302977 11.54302977 0 0 0-11.54302978-11.54302977h-82.78711021a11.66714942 11.66714942 0 0 0-11.66714942 11.54302977V28.81399535H62.18205019A68.14111431 68.14111431 0 0 0-5.83494587 96.95510966v222.17230498a68.14111431 68.14111431 0 0 0 68.01699606 68.14111432h204.17510643v95.81956322a11.66714942 11.66714942 0 0 0 11.66714942 11.54303116h82.78711021a11.54302977 11.54302977 0 0 0 11.54302978-11.54303116v-95.81956322h204.17510643a68.14111431 68.14111431 0 0 0 68.14111433-68.14111432v-222.17230498A68.14111431 68.14111431 0 0 0 576.52955246 28.81399535m662.17276208 246.87190741h-68.88582524v26.80961834h-68.26523396v-60.07340544h117.54032055v-56.84632107h-117.54032055v-41.5797325h136.53046653v-62.05930309H875.40715505v62.05930309h136.53046655v41.5797325h-117.29208268v56.84632107H1011.9376216v60.07340544H875.40715505v62.05930308h363.66751564z m358.2062971-5.70945646h78.44295876a6.95064179 6.95064179 0 0 0 6.70240525-10.79831884l-78.07060397-152.04529162a21.59663769 21.59663769 0 0 0-19.61073864-10.67420058h-78.44296013a6.95064179 6.95064179 0 0 0-6.7024039 10.67420058l78.07060259 152.04529162a21.59663769 21.59663769 0 0 0 19.61074004 10.79831884m472.89188805 40.21442889h-254.31902361V56.368326h233.59121648a11.66714942 11.66714942 0 0 0 11.66714941-11.6671494v-49.64744138a11.66714942 11.66714942 0 0 0-11.66714941-11.54303116h-568.46321475a11.54302977 11.54302977 0 0 0-11.54302977 11.54303116v49.64744138a11.66714942 11.66714942 0 0 0 11.54302977 11.6671494h233.71533474v253.82254919H1460.00578894a11.54302977 11.54302977 0 0 0-11.66714803 11.54302979v51.75745864a11.66714942 11.66714942 0 0 0 11.66714803 11.66714941h254.31902361v97.92957915a11.54302977 11.54302977 0 0 0 11.54303117 11.54303116h77.94648432a11.66714942 11.66714942 0 0 0 11.66714804-11.54303116v-97.92957915h254.31902361a11.54302977 11.54302977 0 0 0 11.54303114-11.66714941V321.73390498a11.41891151 11.41891151 0 0 0-11.54303114-11.54302979" fill="#EA5504" /><path d="M5418.89284129 334.51812147H5294.02952417a11.54302977 11.54302977 0 0 0-11.54302977 11.54303115v122.0085889a11.54302977 11.54302977 0 0 0 11.54302977 11.54302977h124.11860618a11.66714942 11.66714942 0 0 0 11.66714805-11.54302977v-122.0085889a11.66714942 11.66714942 0 0 0-11.66714805-11.54303115" fill="#005E3C" /><path d="M1410.48246583 844.02499925a17.99719853 17.99719853 0 1 1-17.99719853-17.99719853 17.99719853 17.99719853 0 0 1 17.99719853 17.99719853M777.22933801 714.07281836a60.19752369 60.19752369 0 0 1 22.96194267 13.15657265 406.11607871 406.11607871 0 0 0 103.88727349 54.73630514 14.89423241 14.89423241 0 0 1 9.92948829 17.50072274c-2.97884649 6.57828563-8.44006503 8.06770887-16.5077753 4.34415147a453.40526765 453.40526765 0 0 1-103.88727211-53.61923805 60.81811637 60.81811637 0 0 0-16.38365704-10.92243711 42.94503748 42.94503748 0 0 0-15.39070683 9.80537001 386.00886427 386.00886427 0 0 1-99.29488411 56.9704407c-7.94359062 3.59943916-13.52892742 2.11001593-16.38365705-4.46827111a12.41186034 12.41186034 0 0 1 5.83357471-17.50072273 322.70837583 322.70837583 0 0 0 100.66018912-55.72925398 55.35689782 55.35689782 0 0 1 24.57548416-14.27363973z m-70.00289371 76.58117934h146.58407445a10.79831884 10.79831884 0 0 1 9.80537001 10.9224371c-0.74471231 6.57828563-3.97179531 9.92948827-9.80537001 9.92948966h-62.05930311v32.76731131h99.29488413a10.92243711 10.92243711 0 0 1 9.80537003 10.9224371c-0.74471231 6.57828563-4.09591357 9.92948827-9.80537003 9.92948827h-99.29488413v79.80826374h40.21442751c-5.95769296-3.59943916-6.57828563-8.68830292-2.23413416-15.26658858a245.75483892 245.75483892 0 0 0 30.6572954-51.3851025 10.42596269 10.42596269 0 0 1 14.14952147-5.46121854 12.41186034 12.41186034 0 0 1 4.46826973 15.39070681 237.19065565 237.19065565 0 0 1-31.77436386 53.61923808c-1.48942323 2.11001593-2.97884649 3.22708438-4.34415008 3.22708437h62.05930171c5.0888624 0 8.06770887 2.97884649 8.81242119 8.8124198s-3.72355878 10.17772618-8.81242119 10.92243848H660.18549324a9.92948827 9.92948827 0 0 1-9.92948826-10.92243848c0-5.83357471 3.35120265-8.81242118 9.92948826-8.8124198h108.23142359v-79.93238338h-97.30898648a8.81242118 8.81242118 0 0 1-9.92948826-9.92948827 9.92948827 9.92948827 0 0 1 9.92948826-10.9224371h97.30898648v-32.76731131h-61.19047253a8.81242118 8.81242118 0 0 1-9.92948827-9.92948966 9.92948827 9.92948827 0 0 1 9.92948827-10.9224371z m-3.35120125 89.73775203A306.20060053 306.20060053 0 0 1 727.95425142 922.467958a12.41186034 12.41186034 0 0 1-3.227083 16.38365565 10.79831884 10.79831884 0 0 1-15.39070684-5.46121855c-6.57828563-12.41186034-14.52187626-26.18902566-24.07900974-41.57973249a9.30889561 9.30889561 0 0 1 2.23413417-14.14952148 12.41186034 12.41186034 0 0 1 16.38365704 2.7306086zM973.70909173 720.651104h109.34849204c6.57828563 0.74471231 9.92948827 4.09591357 9.92948828 9.92948826s-3.35120265 8.68830292-9.92948828 8.68830294h-109.34849204c-7.32299794 0-11.29479325-2.85472821-12.41186034-8.68830294s5.0888624-9.18477735 12.41186034-9.92948826z m7.69535272 104.01139173h89.61363376c16.13541915 0 23.7066536 6.20593086 23.08606092 18.49367295V947.29167869c-1.48942323 19.73485828-16.13541915 25.44431474-43.81386805 17.50072411-5.83357471-2.97884649-8.06770887-6.95064179-6.57828563-12.41186172a9.18477735 9.18477735 0 0 1 12.41186034-5.46121854q19.73485828 7.6953541 19.73485829-2.23413418v-95.94368287c-0.74471231-4.46826973-2.60649033-6.57828563-5.46121855-6.57828564h-82.41475406c-5.95769296 0-8.44006503 2.48237206-7.6953541 7.57123446v113.81676177a9.92948827 9.92948827 0 0 1-9.80537001 8.81242119c-5.95769296-0.74471231-8.81242118-3.72355878-8.8124212-8.81242119v-121.38799623q0.62059267-17.50072273 19.73485829-17.50072412z m9.80537001-72.23702788h71.1199622q17.50072273-1.11706708 16.38365563 17.50072273v18.61779121c0.74471231 14.52187626-5.0888624 21.10016327-17.50072411 19.61074003h-70.00289372c-11.66714942 0-17.50072273-6.57828563-17.50072273-19.61074003v-18.61779121q-1.11706708-17.50072273 17.50072273-17.50072273z m3.22708438 137.77165188h37.23558104c-1.48942323-2.11001593-1.11706708-5.46121854 1.11706847-9.80537a157.87886633 157.87886633 0 0 0 14.27363974-29.54022832c1.36530498-5.83357471 5.46121854-7.6953541 12.41186033-5.46121855a10.79831884 10.79831884 0 0 1 5.58533682 13.15657265l-4.46826972 8.68830293A94.8266144 94.8266144 0 0 1 1049.173204 890.19711973h12.41186034a7.6953541 7.6953541 0 0 1 6.57828564 8.81242119c0 5.83357471-2.23413555 8.81242118-6.57828564 8.81242119h-24.82372068v43.68974978a8.56418329 8.56418329 0 0 1-9.80537002 7.69535272c-5.83357471 0-8.68830292-2.60649033-8.68830294-7.69535272v-43.68974978h-23.83077186c-6.45416738 0-9.80537002-2.97884649-9.80537001-8.81242119s3.35120265-8.06770887 9.80537001-8.81242119z m15.39070684-39.34559832a23.83077186 23.83077186 0 0 0 4.34415146 9.92948966l6.57828564 12.41186033c2.23413555 7.32299794 0 12.41186034-5.46121856 14.27363974a10.17772618 10.17772618 0 0 1-13.15657128-7.69535411 23.9548915 23.9548915 0 0 1-4.34415145-8.68830292c-2.23413555-5.0888624-3.97179531-9.55713213-5.46121854-13.15657127s-1.48942323-9.18477735 4.34415007-12.41186036a9.68125174 9.68125174 0 0 1 13.15657266 5.33709893z m44.80681686-79.80826236h-56.84632105c-4.34415148 0-6.20593086 1.73766114-5.46121854 5.46121856v5.46121854c0 5.0888624 2.11001593 7.6953541 6.57828562 7.69535272h55.72925397c3.72355878 0 5.46121854-2.23413555 5.46121856-6.57828563v-6.57828563a4.71650763 4.71650763 0 0 0-5.46121856-5.46121856z m112.69969468-43.81386804v22.9619413h24.82372068c10.92243711 0 16.38365565 5.0888624 16.38365567 15.39070681v100.66019049c0 12.41186034-4.71650763 18.24543505-14.27363974 17.50072274h-27.30609276v59.08045662l24.07900974-3.35120264a224.40643914 224.40643914 0 0 1-8.68830292-26.18902567 9.43301387 9.43301387 0 0 1 5.46121857-13.15657266 10.42596269 10.42596269 0 0 1 12.41186033 6.57828702 352.12448449 352.12448449 0 0 1 19.73485828 61.19047252 9.68125174 9.68125174 0 0 1-7.69535271 10.9224371c-6.57828563 0.74471231-10.55008096-1.36530498-12.41186034-6.45416737a134.79280539 134.79280539 0 0 1-4.34415148-15.39070683q-83.15946637 9.92948827-85.26948227 10.9224371a12.41186034 12.41186034 0 0 1-11.41891151-9.80537002c0-5.83357471 3.59943916-9.43301387 10.9224371-10.92243711a259.53200426 259.53200426 0 0 1 37.23558102-2.23413553v-61.19047253h-22.34134862c-14.52187626 0.74471231-21.10016327-4.46826973-19.61074002-15.39070682v-101.7772562q-1.11706708-16.38365565 17.50072412-16.38365702h24.07900975v-22.9619413a8.68830292 8.68830292 0 0 1 9.80536863-9.80537002 9.80537002 9.80537002 0 0 1 10.92243848 9.80537002z m-35.00144686 42.69679957a7.94359062 7.94359062 0 0 0-7.6953541 8.68830293v79.932382c-0.74471231 4.34415148 1.48942323 6.20593086 6.57828563 5.46121855h15.39070822v-94.08190348z m49.64744139 0h-14.64599453v94.08190348h15.39070683c4.34415148 0.74471231 6.45416738-1.11706708 6.45416739-5.46121855v-79.932382c0-5.83357471-2.48237206-8.68830292-7.57123446-8.68830293zM1656.11318651 719.5340369a10.55008096 10.55008096 0 0 1 12.41186034 7.69535411c1.36530498 6.57828563-0.74471231 10.55008096-6.57828563 12.41186034a119.02974241 119.02974241 0 0 1-33.88437978 6.57828563v45.92388396h36.11851395c11.54302977 8.06770887 11.54302977 15.76306298 0 22.96194268h-36.11851395v5.46121855a303.59411022 303.59411022 0 0 1 43.6897498 51.50922077 12.41186034 12.41186034 0 0 1-3.22708439 16.38365703c-6.57828563 4.34415148-11.29479325 3.22708438-14.27363974-3.35120264a157.50651017 157.50651017 0 0 0-26.18902567-37.2355824v116.79560824c-0.74471231 5.0888624-4.46826973 7.94359062-11.04655536 8.68830293s-9.80537002-3.59943916-9.80537001-8.68830293v-113.81676176a212.36693494 212.36693494 0 0 1-37.23558242 51.38510388c-5.83357471 5.95769296-11.29479325 6.57828563-16.38365564 2.23413417a12.41186034 12.41186034 0 0 1 1.11706709-16.38365565 178.85491134 178.85491134 0 0 0 49.64744275-73.35409635h-39.46971659c-10.92243711-7.94359062-10.55008096-15.63894473 1.11706709-22.96194129h41.57973388V748.70190904a170.29072668 170.29072668 0 0 1-36.11851534 3.35120264c-12.41186034-5.83357471-12.41186034-13.15657265-2.1100159-21.84487419a479.47017507 479.47017507 0 0 0 86.75890552-10.67420059z m127.96628325 14.27363974v146.58407309a151.92117335 151.92117335 0 0 1 17.50072273-2.11001593 37.23558241 37.23558241 0 0 0 8.8124212-2.23413419c12.41186034 7.32299794 12.41186034 14.89423241 2.11001589 22.96194131-15.26658857 2.23413555-24.82372067 3.59943916-28.42315982 4.34415146v64.54167516a10.92243711 10.92243711 0 0 1-10.92243848 9.92948829c-7.32299794-0.74471231-10.92243711-4.09591357-10.92243711-9.92948829v-62.05930309q-68.88582662 12.41186034-97.43310473 16.38365565a11.29479325 11.29479325 0 0 1-12.41186172-8.68830155 12.41186034 12.41186034 0 0 1 8.68830293-14.27363973 130.57277357 130.57277357 0 0 0 18.6177912-2.23413557c33.51202362-5.0888624 61.31459078-9.43301387 83.15946638-13.03245301v-148.94232686c0-5.83357471 3.22708438-9.18477735 9.80536862-9.92948965s10.67420059 3.59943916 11.41891291 8.68830291zM1694.58995427 800.58348597a177.73784426 177.73784426 0 0 1 40.46266541 43.6897498 12.41186034 12.41186034 0 0 1-2.11001591 16.5077753 8.68830292 8.68830292 0 0 1-14.27363974-2.23413556 221.17935615 221.17935615 0 0 0-38.22853123-42.69680096c-5.0888624-3.59943916-5.46121854-8.31594677-1.1170671-14.27363975a11.04655536 11.04655536 0 0 1 15.26658857-0.99294883z m12.41186034-65.65874225a387.0018131 387.0018131 0 0 1 43.81386804 49.64744275 13.77716532 13.77716532 0 0 1-2.23413417 16.50777392 8.68830292 8.68830292 0 0 1-14.27363973-2.23413417 423.12032704 423.12032704 0 0 0-41.45561425-45.92388395 9.68125174 9.68125174 0 0 1-2.23413555-15.39070683 12.41186034 12.41186034 0 0 1 16.38365566-2.60649172zM1931.03589897 731.57354248V773.52563112h21.84487421a10.42596269 10.42596269 0 0 1 9.80537002 9.92948828c-0.74471231 6.57828563-3.97179531 9.80537002-9.80537002 9.80537001h-21.84487421V847.99679456a78.93943316 78.93943316 0 0 0 19.61073866-9.92948827c4.46826973-2.11001593 8.44006503 0 12.41186171 4.46826973a9.30889561 9.30889561 0 0 1-2.11001729 12.41186034 274.30211841 274.30211841 0 0 1-29.54022829 16.38365564v80.92533082q-3.35120265 27.30609275-43.81386667 17.50072412a11.54302977 11.54302977 0 0 1-9.80537002-13.15657265c2.11001593-5.83357471 6.95064179-7.94359062 14.1495201-6.57828563 13.90128357 3.72355878 20.10721445 2.23413555 18.61779121-4.34415148v-67.39640338c-2.11001593 0-6.20593086 2.11001593-12.41186035 4.34415147a159.24417131 159.24417131 0 0 1-15.26658856 5.46121854c-7.32299794 1.48942323-12.41186034 0-14.27363974-5.46121854a11.54302977 11.54302977 0 0 1 7.69535409-14.27363974 55.23277957 55.23277957 0 0 0 7.69535272-2.11001592c10.17772618-3.72355878 18.86602771-6.95064179 26.18902568-9.92948827v-63.42460808h-26.18902568c-5.83357471 0-9.18477735-3.22708438-9.92948827-9.80537002a10.42596269 10.42596269 0 0 1 9.92948827-9.92948827h26.18902568v-41.57973249c0-5.0888624 3.35120265-7.94359062 9.92948966-8.68830294s10.30184444 3.59943916 10.92243709 8.68830294z m118.16091184-2.1100173v16.38365565h72.11291102a10.92243711 10.92243711 0 0 1 9.92948829 10.92243849c-0.74471231 7.32299794-4.09591357 10.92243711-9.92948829 10.9224371h-72.11291102v39.46971658h53.61923807c14.52187626 2.11001593 18.86602771 12.41186034 13.0324544 29.54022831a201.56861612 201.56861612 0 0 1-54.61218689 78.69119526 240.79009479 240.79009479 0 0 0 70.00289373 36.11851532 12.41186034 12.41186034 0 0 1 8.68830153 15.39070684 12.41186034 12.41186034 0 0 1-16.38365564 6.45416737 400.53074052 400.53074052 0 0 1-81.42180523-43.6897498 430.19508846 430.19508846 0 0 1-84.27653346 40.46266542 12.41186034 12.41186034 0 0 1-16.38365565-6.57828564c-2.23413555-7.32299794 0.74471231-12.41186034 8.68830154-14.27363974a183.57141758 183.57141758 0 0 0 72.23702927-35.00144686 310.29651409 310.29651409 0 0 1-48.15801951-68.88582662 12.41186034 12.41186034 0 0 1 1.11706847-16.38365566h-3.22708438c-5.83357471 0-9.18477735-3.59943916-9.92948828-10.9224371a11.29479325 11.29479325 0 0 1 10.92243711-10.9224371h53.61923805v-39.46971658h-62.05930309c-5.83357471 0-9.18477735-3.59943916-9.80537002-10.9224371a10.67420059 10.67420059 0 0 1 9.80537002-10.92243849h62.05930309v-17.50072274c0-5.83357471 3.72355878-8.81242118 11.04655537-8.81242119a10.92243711 10.92243711 0 0 1 11.4189115 9.92948828z m38.22853124 99.29488551h-98.42605492a6.33004912 6.33004912 0 0 0 3.22708436 3.22708299c21.22428155 35.00144686 37.98029333 57.34279547 50.3921537 66.77581071a155.02413809 155.02413809 0 0 0 48.1580195-60.19752369c0.99294883-4.84062588 0.99294883-8.06770887-3.35120264-9.5571335z" fill="#EA5504" /></svg>