<?xml version="1.0" standalone="no"?><!DOCTYPE svg PUBLIC "-//W3C//DTD SVG 1.1//EN" "http://www.w3.org/Graphics/SVG/1.1/DTD/svg11.dtd"><svg class="icon" width="200px" height="200.00px" viewBox="0 0 1024 1024" version="1.1" xmlns="http://www.w3.org/2000/svg"><path d="M493.88401253 1001.20355078a21.92609552 21.92609552 0 0 0 34.65042034 0m0.50322188 0l470.15300853-450.31168851a50.32218743 50.32218743 0 0 0-1.00644374-72.32017292 53.84474055 53.84474055 0 0 0-74.40494841 0l-412.06682607 394.16650555-411.92304908-394.16650555a54.34796242 54.34796242 0 0 0-74.4768374 0c-20.48831889 19.91320803-22.06987349 52.91018578-1.07833272 72.32017292l470.15300854 450.31168851h34.65042035z"  /><path d="M493.88401253 546.72230933a21.92609552 21.92609552 0 0 0 34.65042034 0m0.50322188 0l470.15300853-450.31168852a50.32218743 50.32218743 0 0 0-1.00644374-72.32017193 53.84474055 53.84474055 0 0 0-74.40494841 0L511.71244506 418.25695343 99.78939598 24.09044888a54.34796242 54.34796242 0 0 0-74.4768374 0C4.8242397 44.00365691 3.24268509 77.00063367 24.23422585 96.41062081l470.15300855 450.31168852h34.65042035z"  /></svg>
