<?xml version="1.0" standalone="no"?><!DOCTYPE svg PUBLIC "-//W3C//DTD SVG 1.1//EN" "http://www.w3.org/Graphics/SVG/1.1/DTD/svg11.dtd"><svg class="icon" width="200px" height="200.00px" viewBox="0 0 1024 1024" version="1.1" xmlns="http://www.w3.org/2000/svg"><path d="M17.46311588 493.88401253a21.92609552 21.92609552 0 0 0 0 34.65042034m0 0.50322188l450.31168852 470.15300853a50.32218743 50.32218743 0 0 0 72.32017292-1.00644374 53.84474055 53.84474055 0 0 0 0-74.40494842l-394.16650556-412.06682605 394.16650555-411.92304909a54.34796242 54.34796242 0 0 0 1e-8-74.47683741c-19.91320803-20.48831889-52.91018577-22.06987349-72.32017292-1.07833271l-450.31168852 470.15300854 0 34.65042035z"  /><path d="M471.94435735 493.88401254a21.92609552 21.92609552 0 0 0-1e-8 34.65042034m1e-8 0.50322187l450.31168851 470.15300854a50.32218743 50.32218743 0 0 0 72.32017193-1.00644375 53.84474055 53.84474055 0 0 0-1e-8-74.40494841L600.40971324 511.71244506 994.57621778 99.78939598a54.34796242 54.34796242 0 0 0 1e-8-74.47683741C974.66300976 4.8242397 941.66603299 3.24268509 922.25604586 24.23422584l-450.31168851 470.15300856 0 34.65042035z"  /></svg>
