<?xml version="1.0" standalone="no"?><!DOCTYPE svg PUBLIC "-//W3C//DTD SVG 1.1//EN" "http://www.w3.org/Graphics/SVG/1.1/DTD/svg11.dtd"><svg class="icon" width="200px" height="200.00px" viewBox="0 0 1024 1024" version="1.1" xmlns="http://www.w3.org/2000/svg"><path d="M1006.53688412 524.78265414a21.92609552 21.92609552 0 0 0 0-34.65042034m0-0.50322188l-450.31168852-470.15300853a50.32218743 50.32218743 0 0 0-72.32017292 1.00644374 53.84474055 53.84474055 0 0 0 0 74.40494842l394.16650556 412.06682605-394.16650555 411.92304909a54.34796242 54.34796242 0 0 0-1e-8 74.47683741c19.91320803 20.48831889 52.91018577 22.06987349 72.32017292 1.07833271l450.31168852-470.15300854 0-34.65042035z"  /><path d="M552.05564265 524.78265413a21.92609552 21.92609552 0 0 0 1e-8-34.65042034m-1e-8-0.50322187l-450.31168851-470.15300854a50.32218743 50.32218743 0 0 0-72.32017193 1.00644375 53.84474055 53.84474055 0 0 0 1e-8 74.40494841L423.59028676 506.95422161 29.42378222 918.87727069a54.34796242 54.34796242 0 0 0-1e-8 74.47683741C49.33699024 1013.84242697 82.33396701 1015.42398158 101.74395414 994.43244083l450.31168851-470.15300856 0-34.65042035z"  /></svg>
