<?xml version="1.0" standalone="no"?><!DOCTYPE svg PUBLIC "-//W3C//DTD SVG 1.1//EN" "http://www.w3.org/Graphics/SVG/1.1/DTD/svg11.dtd"><svg class="icon" width="200px" height="200.00px" viewBox="0 0 1024 1024" version="1.1" xmlns="http://www.w3.org/2000/svg"><path d="M530.11598747 17.46311588a21.92609552 21.92609552 0 0 0-34.65042034 1e-8m-0.50322188-1e-8l-470.15300853 450.31168852a50.32218743 50.32218743 0 0 0 1.00644374 72.32017292 53.84474055 53.84474055 0 0 0 74.40494842 0l412.06682605-394.16650556 411.92304909 394.16650555a54.34796242 54.34796242 0 0 0 74.4768374 1e-8c20.48831889-19.91320803 22.06987349-52.91018577 1.07833272-72.32017292l-470.15300854-450.31168852-34.65042035 0z"  /><path d="M530.11598746 471.94435735a21.92609552 21.92609552 0 0 0-34.65042033-1e-8m-0.50322188 1e-8l-470.15300853 450.31168851a50.32218743 50.32218743 0 0 0 1.00644374 72.32017193 53.84474055 53.84474055 0 0 0 74.40494841-1e-8L512.28755494 600.40971324 924.21060402 994.57621778a54.34796242 54.34796242 0 0 0 74.4768374 1e-8C1019.1757603 974.66300976 1020.75731491 941.66603299 999.76577416 922.25604586l-470.15300856-450.31168851-34.65042035 0z"  /></svg>
