<?xml version="1.0" standalone="no"?><!DOCTYPE svg PUBLIC "-//W3C//DTD SVG 1.1//EN" "http://www.w3.org/Graphics/SVG/1.1/DTD/svg11.dtd"><svg class="icon" width="200px" height="200.00px" viewBox="0 0 1024 1024" version="1.1" xmlns="http://www.w3.org/2000/svg"><path d="M0 0h1024v1024H0z" fill="#FFFFFF" /><path d="M219.328 992c-17.6 0-34.432-6.816-46.88-18.976a64.032 64.032 0 0 1-19.424-45.824V498.304l-66.464-65.6V289.6a115.68 115.68 0 0 1 66.464-103.712V96.8c0-17.184 6.976-33.664 19.424-45.824 12.448-12.16 29.312-18.976 46.88-18.976h507.968l191.264 187.68v707.52c0 35.52-29.184 64.384-65.504 64.8H219.328z m-100.48-571.84l66.4 65.408v440.864c0 18.56 15.424 33.568 34.4 33.568h632.992a33.984 33.984 0 0 0 34.24-33.6V232.96L713.824 64H220.288a34.848 34.848 0 0 0-24.736 9.6 33.184 33.184 0 0 0-10.304 24v109.888l-10.336 3.712a84.48 84.48 0 0 0-56.032 78.816v130.112z" fill="#31C380" /><path d="M111.648 426.336h64.96v65.6z" fill="#1DAA63" /><path d="M710.4 185.28c0 27.168 22.048 49.216 49.216 49.216h129.28L710.4 56v129.28z" fill="#E4E4E4" /><path d="M211.648 189.6h331.872A100 100 0 0 1 643.52 289.6v36.896a100 100 0 0 1-100 100H111.68V289.6a100 100 0 0 1 100-100zM719.04 545.952v232.224H348.992V545.92H719.04z m21.824-21.792H327.2v275.808H741.12v-276.288l-0.32 0.48z" fill="#31C380" /><path d="M346.496 778.176l106.56-100.32 45.6 43.008 104.512-98.432 120.544 113.376v42.368H346.496zM390.272 609.024a33.184 33.184 0 1 0 66.336 0 33.184 33.184 0 0 0-66.336 0z" fill="#31C380" /><path d="M251.84 330.08c0 25.248-8.736 36-31.168 36-4.64 0.064-9.28-0.352-13.856-1.28v-16.8c3.52 0.544 7.136 0.8 10.752 0.768 11.84 0 13.536-8.256 13.536-17.6V253.312h20.704v76.8z m26.624-76.48h44.512a33.952 33.952 0 0 1 37.856 33.664 34.432 34.432 0 0 1-39.072 34.432h-22.432v42.816h-20.864V253.632z m20.864 51.264h20.864c12.48 0 20.256-5.312 20.256-17.12 0-11.84-8.736-17.28-19.808-17.28h-21.312v34.4z m177.056 59.648h-15.552a55.296 55.296 0 0 1-1.728-12.32c-8 9.984-20.48 15.264-33.152 14.048-32.096 0-49.696-24.32-49.696-55.936s19.008-58.24 53.44-58.24a42.976 42.976 0 0 1 46.72 34.56h-20.416a24.448 24.448 0 0 0-26.464-18.048c-23.84 0-31.168 19.616-31.168 40.8 0 21.184 8.416 40 31.168 40a24.448 24.448 0 0 0 26.624-27.84v-1.088h-26.784v-17.28h46.72l0.32 61.344z" fill="#FFFFFF" /></svg>